<?xml version="1.0" encoding="UTF-8"?>
<svg width="229px" height="134px" viewBox="0 0 229 134" version="1.1"
  xmlns="http://www.w3.org/2000/svg"
  xmlns:xlink="http://www.w3.org/1999/xlink">
  <!-- Generator: Sketch 61.2 (89653) - https://sketch.com -->
  <title>splash_mdpi</title>
  <desc>Created with Sketch.</desc>
  <defs>
    <filter x="-41.4%" y="-23.3%" width="182.9%" height="146.6%" filterUnits="objectBoundingBox" id="filter-1">
      <feGaussianBlur stdDeviation="50" in="SourceGraphic"></feGaussianBlur>
    </filter>
    <path d="M89.6136633,13.3440559 C79.9298401,13.3440559 72.5665993,19.3927738 72.5665993,27.8364359 L72.5688646,28.094284 C72.7089674,36.0365322 79.3399977,40.2655874 89.6136633,40.2655874 L89.7162241,40.2647075 L89.719714,40.2644308 L89.7079325,40.2640665 C93.1700679,40.3838645 95.2184487,41.4219339 95.2184487,43.1988633 C95.2184487,46.0621146 92.9883138,47.7246138 89.4783288,47.7246138 C86.2697474,47.7246138 83.4058072,45.683789 83.0616453,43.03631 C83.0476241,42.9284514 82.9475349,42.8532237 82.8399096,42.8696519 C79.4279199,43.3904668 76.2095066,44.6785325 73.3963709,46.6212932 C73.3250178,46.6705699 73.2950702,46.7611701 73.323019,46.8432044 C75.5830183,53.4766741 82.1957431,58.2602331 89.5792451,58.2602331 C99.8783073,58.2602331 106.626309,52.1724374 106.626309,43.2916126 L106.624044,43.0337645 C106.481764,34.9680982 100.087444,30.755235 89.5792451,30.755235 C85.5228619,30.755235 83.9744596,30.0288493 83.9744596,27.9291853 C83.9744596,25.0379187 86.0451355,23.641555 89.7145796,23.641555 C92.8749297,23.641555 95.711363,25.6256565 96.115882,28.2232066 C96.1311216,28.321065 96.2177497,28.3917115 96.3167751,28.3870379 C99.764775,28.2243079 103.078119,27.2901172 106.058553,25.6719833 C106.137523,25.6291087 106.176685,25.5376687 106.153194,25.4510012 C104.256589,18.453625 97.4217013,13.3440559 89.6136633,13.3440559 Z M89.8424067,13.7332433 C97.3050859,13.8308136 103.814023,18.6941506 105.721643,25.3480802 L105.73728,25.4043138 L105.613928,25.469926 C102.838999,26.9294562 99.7794604,27.7912497 96.5971568,27.9836986 L96.4690315,27.9909969 L96.4531658,27.9131727 C95.8817703,25.2351652 92.9522095,23.2538627 89.7145796,23.2538627 C85.8556961,23.2538627 83.5863745,24.7841835 83.5863745,27.9291853 C83.5863745,29.1810299 84.1029071,30.0170937 85.1605897,30.5132732 C86.1099162,30.9586208 87.5000073,31.1429273 89.5792451,31.1429273 C99.9005014,31.1429273 106.098172,35.2262294 106.235996,43.0388871 L106.238232,43.2933195 C106.238232,51.9490075 99.6722985,57.8725408 89.5792451,57.8725408 L89.3629784,57.8711405 C82.3058553,57.7797509 76.0036142,53.2240859 73.7578842,46.9120605 L73.7386281,46.8567508 L73.8584891,46.7757805 C76.4847736,45.0121937 79.458962,43.822595 82.6074116,43.2993048 L82.7068868,43.2830031 L82.7173878,43.3416601 C83.2312409,46.0735338 86.190923,48.1123061 89.4783288,48.1123061 C93.1820971,48.1123061 95.6065338,46.3049607 95.6065338,43.1988633 C95.6065338,41.1374635 93.3674903,40.002771 89.7213667,39.8766065 L89.703684,39.8767923 L89.6997923,39.8771262 L89.6119831,39.8779024 C79.5259467,39.8778951 73.0924964,35.7748499 72.9569121,28.0891614 L72.9546769,27.834729 C72.9546769,19.625471 80.1292462,13.7317483 89.6136633,13.7317483 L89.8424067,13.7332433 Z" id="path-2"></path>
    <filter x="-185.7%" y="-140.8%" width="471.4%" height="381.6%" filterUnits="objectBoundingBox" id="filter-3">
      <feMorphology radius="2.75" operator="dilate" in="SourceAlpha" result="shadowSpreadOuter1"></feMorphology>
      <feOffset dx="0" dy="0" in="shadowSpreadOuter1" result="shadowOffsetOuter1"></feOffset>
      <feMorphology radius="3.5" operator="erode" in="SourceAlpha" result="shadowInner"></feMorphology>
      <feOffset dx="0" dy="0" in="shadowInner" result="shadowInner"></feOffset>
      <feComposite in="shadowOffsetOuter1" in2="shadowInner" operator="out" result="shadowOffsetOuter1"></feComposite>
      <feGaussianBlur stdDeviation="11.5" in="shadowOffsetOuter1" result="shadowBlurOuter1"></feGaussianBlur>
      <feColorMatrix values="0 0 0 0 1   0 0 0 0 0   0 0 0 0 0.976016171  0 0 0 0.296437937 0" type="matrix" in="shadowBlurOuter1" result="shadowMatrixOuter1"></feColorMatrix>
      <feMorphology radius="1.25" operator="dilate" in="SourceAlpha" result="shadowSpreadOuter2"></feMorphology>
      <feOffset dx="0" dy="4" in="shadowSpreadOuter2" result="shadowOffsetOuter2"></feOffset>
      <feMorphology radius="2" operator="erode" in="SourceAlpha" result="shadowInner"></feMorphology>
      <feOffset dx="0" dy="4" in="shadowInner" result="shadowInner"></feOffset>
      <feComposite in="shadowOffsetOuter2" in2="shadowInner" operator="out" result="shadowOffsetOuter2"></feComposite>
      <feGaussianBlur stdDeviation="0.5" in="shadowOffsetOuter2" result="shadowBlurOuter2"></feGaussianBlur>
      <feColorMatrix values="0 0 0 0 0   0 0 0 0 0   0 0 0 0 0  0 0 0 0.470716783 0" type="matrix" in="shadowBlurOuter2" result="shadowMatrixOuter2"></feColorMatrix>
      <feMorphology radius="3.25" operator="dilate" in="SourceAlpha" result="shadowSpreadOuter3"></feMorphology>
      <feOffset dx="0" dy="5" in="shadowSpreadOuter3" result="shadowOffsetOuter3"></feOffset>
      <feMorphology radius="4" operator="erode" in="SourceAlpha" result="shadowInner"></feMorphology>
      <feOffset dx="0" dy="5" in="shadowInner" result="shadowInner"></feOffset>
      <feComposite in="shadowOffsetOuter3" in2="shadowInner" operator="out" result="shadowOffsetOuter3"></feComposite>
      <feGaussianBlur stdDeviation="0.5" in="shadowOffsetOuter3" result="shadowBlurOuter3"></feGaussianBlur>
      <feColorMatrix values="0 0 0 0 0   0 0 0 0 0   0 0 0 0 0  0 0 0 0.206457605 0" type="matrix" in="shadowBlurOuter3" result="shadowMatrixOuter3"></feColorMatrix>
      <feMorphology radius="0.75" operator="dilate" in="SourceAlpha" result="shadowSpreadOuter4"></feMorphology>
      <feOffset dx="0" dy="0" in="shadowSpreadOuter4" result="shadowOffsetOuter4"></feOffset>
      <feMorphology radius="1.5" operator="erode" in="SourceAlpha" result="shadowInner"></feMorphology>
      <feOffset dx="0" dy="0" in="shadowInner" result="shadowInner"></feOffset>
      <feComposite in="shadowOffsetOuter4" in2="shadowInner" operator="out" result="shadowOffsetOuter4"></feComposite>
      <feGaussianBlur stdDeviation="4.5" in="shadowOffsetOuter4" result="shadowBlurOuter4"></feGaussianBlur>
      <feColorMatrix values="0 0 0 0 0.885360054   0 0 0 0 0.301896307   0 0 0 0 0.759205731  0 0 0 0.421656469 0" type="matrix" in="shadowBlurOuter4" result="shadowMatrixOuter4"></feColorMatrix>
      <feMorphology radius="0.25" operator="dilate" in="SourceAlpha" result="shadowSpreadOuter5"></feMorphology>
      <feOffset dx="0" dy="0" in="shadowSpreadOuter5" result="shadowOffsetOuter5"></feOffset>
      <feMorphology radius="1" operator="erode" in="SourceAlpha" result="shadowInner"></feMorphology>
      <feOffset dx="0" dy="0" in="shadowInner" result="shadowInner"></feOffset>
      <feComposite in="shadowOffsetOuter5" in2="shadowInner" operator="out" result="shadowOffsetOuter5"></feComposite>
      <feGaussianBlur stdDeviation="20" in="shadowOffsetOuter5" result="shadowBlurOuter5"></feGaussianBlur>
      <feColorMatrix values="0 0 0 0 0.462745098   0 0 0 0 0.160784314   0 0 0 0 0.349019608  0 0 0 0.525923295 0" type="matrix" in="shadowBlurOuter5" result="shadowMatrixOuter5"></feColorMatrix>
      <feMorphology radius="0.25" operator="dilate" in="SourceAlpha" result="shadowSpreadOuter6"></feMorphology>
      <feOffset dx="0" dy="0" in="shadowSpreadOuter6" result="shadowOffsetOuter6"></feOffset>
      <feMorphology radius="1" operator="erode" in="SourceAlpha" result="shadowInner"></feMorphology>
      <feOffset dx="0" dy="0" in="shadowInner" result="shadowInner"></feOffset>
      <feComposite in="shadowOffsetOuter6" in2="shadowInner" operator="out" result="shadowOffsetOuter6"></feComposite>
      <feGaussianBlur stdDeviation="0.5" in="shadowOffsetOuter6" result="shadowBlurOuter6"></feGaussianBlur>
      <feColorMatrix values="0 0 0 0 0   0 0 0 0 0   0 0 0 0 0  0 0 0 0.5 0" type="matrix" in="shadowBlurOuter6" result="shadowMatrixOuter6"></feColorMatrix>
      <feMorphology radius="0.25" operator="dilate" in="SourceAlpha" result="shadowSpreadOuter7"></feMorphology>
      <feOffset dx="0" dy="0" in="shadowSpreadOuter7" result="shadowOffsetOuter7"></feOffset>
      <feMorphology radius="1" operator="erode" in="SourceAlpha" result="shadowInner"></feMorphology>
      <feOffset dx="0" dy="0" in="shadowInner" result="shadowInner"></feOffset>
      <feComposite in="shadowOffsetOuter7" in2="shadowInner" operator="out" result="shadowOffsetOuter7"></feComposite>
      <feGaussianBlur stdDeviation="0.5" in="shadowOffsetOuter7" result="shadowBlurOuter7"></feGaussianBlur>
      <feColorMatrix values="0 0 0 0 0.905655571   0 0 0 0 0.659137091   0 0 0 0 0.852354278  0 0 0 0.721235795 0" type="matrix" in="shadowBlurOuter7" result="shadowMatrixOuter7"></feColorMatrix>
      <feMerge>
        <feMergeNode in="shadowMatrixOuter1"></feMergeNode>
        <feMergeNode in="shadowMatrixOuter2"></feMergeNode>
        <feMergeNode in="shadowMatrixOuter3"></feMergeNode>
        <feMergeNode in="shadowMatrixOuter4"></feMergeNode>
        <feMergeNode in="shadowMatrixOuter5"></feMergeNode>
        <feMergeNode in="shadowMatrixOuter6"></feMergeNode>
        <feMergeNode in="shadowMatrixOuter7"></feMergeNode>
      </feMerge>
    </filter>
    <filter x="-134.3%" y="-101.9%" width="368.6%" height="303.7%" filterUnits="objectBoundingBox" id="filter-4">
      <feMorphology radius="1" operator="erode" in="SourceAlpha" result="shadowSpreadInner1"></feMorphology>
      <feGaussianBlur stdDeviation="2" in="shadowSpreadInner1" result="shadowBlurInner1"></feGaussianBlur>
      <feOffset dx="0" dy="0" in="shadowBlurInner1" result="shadowOffsetInner1"></feOffset>
      <feComposite in="shadowOffsetInner1" in2="SourceAlpha" operator="arithmetic" k2="-1" k3="1" result="shadowInnerInner1"></feComposite>
      <feColorMatrix values="0 0 0 0 0.176470588   0 0 0 0 0.0745098039   0 0 0 0 0.0745098039  0 0 0 1 0" type="matrix" in="shadowInnerInner1"></feColorMatrix>
    </filter>
    <path d="M60.0946675,5.80037296 C58.1244537,5.80037296 56.1871816,6.05089923 54.3163202,6.5408253 C54.2309868,6.56317171 54.1713852,6.64020835 54.1713852,6.72833557 L54.1713852,49.8647077 C54.1713852,49.9528349 54.2308904,50.0298718 54.3162236,50.0522186 C56.1871149,50.5421613 58.1244197,50.7926962 60.0946675,50.7926962 C62.119234,50.7926962 64.1089066,50.5281537 66.0272822,50.0112622 C66.1119622,49.9884458 66.1707942,49.9117212 66.1707942,49.8241039 L66.1707942,6.76895735 C66.1707942,6.68134011 66.1119337,6.60461556 66.0272537,6.5817993 C64.1088869,6.06491279 62.119224,5.80037296 60.0946675,5.80037296 Z M60.2701957,6.18873976 C62.0830394,6.20267612 63.8661978,6.43247915 65.5927382,6.86904056 L65.7826247,6.91798154 L65.7826247,49.6750154 L65.5927646,49.7240219 C63.8105212,50.1746703 61.9679473,50.4050039 60.0946675,50.4050039 L59.9186708,50.4043258 C58.1596238,50.390767 56.428445,50.1739637 54.7496791,49.7621566 L54.5594621,49.7144308 L54.5594621,6.87843692 L54.4147268,6.9158467 C56.2535329,6.43431502 58.1577355,6.18806527 60.0946675,6.18806527 L60.2701957,6.18873976 Z" id="path-5"></path>
    <filter x="-527.1%" y="-140.6%" width="1154.2%" height="381.2%" filterUnits="objectBoundingBox" id="filter-6">
      <feMorphology radius="2.75" operator="dilate" in="SourceAlpha" result="shadowSpreadOuter1"></feMorphology>
      <feOffset dx="0" dy="0" in="shadowSpreadOuter1" result="shadowOffsetOuter1"></feOffset>
      <feMorphology radius="3.5" operator="erode" in="SourceAlpha" result="shadowInner"></feMorphology>
      <feOffset dx="0" dy="0" in="shadowInner" result="shadowInner"></feOffset>
      <feComposite in="shadowOffsetOuter1" in2="shadowInner" operator="out" result="shadowOffsetOuter1"></feComposite>
      <feGaussianBlur stdDeviation="11.5" in="shadowOffsetOuter1" result="shadowBlurOuter1"></feGaussianBlur>
      <feColorMatrix values="0 0 0 0 1   0 0 0 0 0   0 0 0 0 0.976016171  0 0 0 0.296437937 0" type="matrix" in="shadowBlurOuter1" result="shadowMatrixOuter1"></feColorMatrix>
      <feMorphology radius="1.25" operator="dilate" in="SourceAlpha" result="shadowSpreadOuter2"></feMorphology>
      <feOffset dx="0" dy="4" in="shadowSpreadOuter2" result="shadowOffsetOuter2"></feOffset>
      <feMorphology radius="2" operator="erode" in="SourceAlpha" result="shadowInner"></feMorphology>
      <feOffset dx="0" dy="4" in="shadowInner" result="shadowInner"></feOffset>
      <feComposite in="shadowOffsetOuter2" in2="shadowInner" operator="out" result="shadowOffsetOuter2"></feComposite>
      <feGaussianBlur stdDeviation="0.5" in="shadowOffsetOuter2" result="shadowBlurOuter2"></feGaussianBlur>
      <feColorMatrix values="0 0 0 0 0   0 0 0 0 0   0 0 0 0 0  0 0 0 0.470716783 0" type="matrix" in="shadowBlurOuter2" result="shadowMatrixOuter2"></feColorMatrix>
      <feMorphology radius="3.25" operator="dilate" in="SourceAlpha" result="shadowSpreadOuter3"></feMorphology>
      <feOffset dx="0" dy="5" in="shadowSpreadOuter3" result="shadowOffsetOuter3"></feOffset>
      <feMorphology radius="4" operator="erode" in="SourceAlpha" result="shadowInner"></feMorphology>
      <feOffset dx="0" dy="5" in="shadowInner" result="shadowInner"></feOffset>
      <feComposite in="shadowOffsetOuter3" in2="shadowInner" operator="out" result="shadowOffsetOuter3"></feComposite>
      <feGaussianBlur stdDeviation="0.5" in="shadowOffsetOuter3" result="shadowBlurOuter3"></feGaussianBlur>
      <feColorMatrix values="0 0 0 0 0   0 0 0 0 0   0 0 0 0 0  0 0 0 0.206457605 0" type="matrix" in="shadowBlurOuter3" result="shadowMatrixOuter3"></feColorMatrix>
      <feMorphology radius="0.75" operator="dilate" in="SourceAlpha" result="shadowSpreadOuter4"></feMorphology>
      <feOffset dx="0" dy="0" in="shadowSpreadOuter4" result="shadowOffsetOuter4"></feOffset>
      <feMorphology radius="1.5" operator="erode" in="SourceAlpha" result="shadowInner"></feMorphology>
      <feOffset dx="0" dy="0" in="shadowInner" result="shadowInner"></feOffset>
      <feComposite in="shadowOffsetOuter4" in2="shadowInner" operator="out" result="shadowOffsetOuter4"></feComposite>
      <feGaussianBlur stdDeviation="4.5" in="shadowOffsetOuter4" result="shadowBlurOuter4"></feGaussianBlur>
      <feColorMatrix values="0 0 0 0 0.885360054   0 0 0 0 0.301896307   0 0 0 0 0.759205731  0 0 0 0.421656469 0" type="matrix" in="shadowBlurOuter4" result="shadowMatrixOuter4"></feColorMatrix>
      <feMorphology radius="0.25" operator="dilate" in="SourceAlpha" result="shadowSpreadOuter5"></feMorphology>
      <feOffset dx="0" dy="0" in="shadowSpreadOuter5" result="shadowOffsetOuter5"></feOffset>
      <feMorphology radius="1" operator="erode" in="SourceAlpha" result="shadowInner"></feMorphology>
      <feOffset dx="0" dy="0" in="shadowInner" result="shadowInner"></feOffset>
      <feComposite in="shadowOffsetOuter5" in2="shadowInner" operator="out" result="shadowOffsetOuter5"></feComposite>
      <feGaussianBlur stdDeviation="20" in="shadowOffsetOuter5" result="shadowBlurOuter5"></feGaussianBlur>
      <feColorMatrix values="0 0 0 0 0.462745098   0 0 0 0 0.160784314   0 0 0 0 0.349019608  0 0 0 0.525923295 0" type="matrix" in="shadowBlurOuter5" result="shadowMatrixOuter5"></feColorMatrix>
      <feMorphology radius="0.25" operator="dilate" in="SourceAlpha" result="shadowSpreadOuter6"></feMorphology>
      <feOffset dx="0" dy="0" in="shadowSpreadOuter6" result="shadowOffsetOuter6"></feOffset>
      <feMorphology radius="1" operator="erode" in="SourceAlpha" result="shadowInner"></feMorphology>
      <feOffset dx="0" dy="0" in="shadowInner" result="shadowInner"></feOffset>
      <feComposite in="shadowOffsetOuter6" in2="shadowInner" operator="out" result="shadowOffsetOuter6"></feComposite>
      <feGaussianBlur stdDeviation="0.5" in="shadowOffsetOuter6" result="shadowBlurOuter6"></feGaussianBlur>
      <feColorMatrix values="0 0 0 0 0   0 0 0 0 0   0 0 0 0 0  0 0 0 0.5 0" type="matrix" in="shadowBlurOuter6" result="shadowMatrixOuter6"></feColorMatrix>
      <feMorphology radius="0.25" operator="dilate" in="SourceAlpha" result="shadowSpreadOuter7"></feMorphology>
      <feOffset dx="0" dy="0" in="shadowSpreadOuter7" result="shadowOffsetOuter7"></feOffset>
      <feMorphology radius="1" operator="erode" in="SourceAlpha" result="shadowInner"></feMorphology>
      <feOffset dx="0" dy="0" in="shadowInner" result="shadowInner"></feOffset>
      <feComposite in="shadowOffsetOuter7" in2="shadowInner" operator="out" result="shadowOffsetOuter7"></feComposite>
      <feGaussianBlur stdDeviation="0.5" in="shadowOffsetOuter7" result="shadowBlurOuter7"></feGaussianBlur>
      <feColorMatrix values="0 0 0 0 0.905655571   0 0 0 0 0.659137091   0 0 0 0 0.852354278  0 0 0 0.721235795 0" type="matrix" in="shadowBlurOuter7" result="shadowMatrixOuter7"></feColorMatrix>
      <feMerge>
        <feMergeNode in="shadowMatrixOuter1"></feMergeNode>
        <feMergeNode in="shadowMatrixOuter2"></feMergeNode>
        <feMergeNode in="shadowMatrixOuter3"></feMergeNode>
        <feMergeNode in="shadowMatrixOuter4"></feMergeNode>
        <feMergeNode in="shadowMatrixOuter5"></feMergeNode>
        <feMergeNode in="shadowMatrixOuter6"></feMergeNode>
        <feMergeNode in="shadowMatrixOuter7"></feMergeNode>
      </feMerge>
    </filter>
    <filter x="-381.3%" y="-101.7%" width="862.5%" height="303.4%" filterUnits="objectBoundingBox" id="filter-7">
      <feMorphology radius="1" operator="erode" in="SourceAlpha" result="shadowSpreadInner1"></feMorphology>
      <feGaussianBlur stdDeviation="2" in="shadowSpreadInner1" result="shadowBlurInner1"></feGaussianBlur>
      <feOffset dx="0" dy="0" in="shadowBlurInner1" result="shadowOffsetInner1"></feOffset>
      <feComposite in="shadowOffsetInner1" in2="SourceAlpha" operator="arithmetic" k2="-1" k3="1" result="shadowInnerInner1"></feComposite>
      <feColorMatrix values="0 0 0 0 0.176470588   0 0 0 0 0.0745098039   0 0 0 0 0.0745098039  0 0 0 1 0" type="matrix" in="shadowInnerInner1"></feColorMatrix>
    </filter>
    <path d="M118.248884,0.0646153846 C116.333904,0.0646153846 114.449943,0.301289645 112.62766,0.764524515 C112.541664,0.786385186 112.481469,0.863737566 112.481469,0.952384247 L112.481469,63.6343063 C112.481469,63.7229531 112.541756,63.8003054 112.627752,63.8221657 C114.450007,64.2853851 116.333936,64.5220513 118.248884,64.5220513 C120.17099,64.5220513 122.061812,64.2836121 123.890289,63.8169751 C123.976198,63.7950505 124.036303,63.7177391 124.036303,63.6291602 L124.036259,44.5906093 C124.309978,40.3927517 127.767442,37.099468 131.949752,37.099468 C136.285687,37.099468 139.80999,40.6275373 139.880043,45.0080205 L139.881057,45.1694064 L139.880749,45.2055692 L139.880555,45.2069637 C139.87828,45.2187513 139.877073,45.2309173 139.87704,45.2433563 L139.813832,69.0228211 C139.813597,69.1114279 139.873533,69.1889155 139.95942,69.2110413 C141.803361,69.686067 143.711057,69.9288578 145.65062,69.9288578 C147.535585,69.9288578 149.390547,69.699546 151.186308,69.2505147 L151.203187,69.245477 C151.280261,69.218625 151.332994,69.1458359 151.333234,69.063031 L151.40209,45.3159323 L151.403004,45.3133387 C151.408183,45.2962237 151.411059,45.2781032 151.411271,45.259334 C151.412151,45.1812859 151.412591,45.1031834 151.412591,45.0250291 C151.412591,34.0287417 142.699841,25.1126226 131.949752,25.1126226 L131.629497,25.115271 L131.489463,25.1181005 C128.923581,25.1792322 126.436226,25.7492087 124.133733,26.7833854 L124.03601,26.8275323 L124.036437,0.957515893 C124.036438,0.868935323 123.976333,0.791622138 123.890421,0.769698015 C122.061848,0.303056436 120.170998,0.0646153846 118.248884,0.0646153846 Z M118.425947,0.452307692 C120.136657,0.466260075 121.821074,0.671754342 123.456672,1.06196211 L123.648313,1.10867077 L123.647956,27.1317899 C123.647954,27.2742418 123.796605,27.3680393 123.925369,27.3068353 C126.32352,26.1669468 128.936277,25.5476958 131.63433,25.5029299 L131.951363,25.5003082 C142.483388,25.5003149 151.024506,34.2407961 151.024506,45.0250291 L151.023707,45.1974277 L151.022044,45.2022032 C151.016954,45.2194451 151.014199,45.2376891 151.014144,45.2565711 L150.945443,68.9103692 L151.092076,68.8744249 C149.327071,69.3157657 147.503753,69.5411655 145.65062,69.5411655 L145.471951,69.5404667 C143.745732,69.5269587 142.046317,69.3177196 140.396872,68.9204947 L140.202213,68.8726338 L140.264953,45.27936 L140.267364,45.2644637 L140.268114,45.2553652 L140.268979,45.2014312 L140.269191,45.1410206 C140.269191,40.4862996 136.545084,36.7117757 131.949752,36.7117757 L131.818333,36.7128092 C127.489225,36.7809387 123.93302,40.2092529 123.648583,44.5780284 L123.648184,63.4778954 L123.456554,63.5247111 C121.76464,63.9283696 120.020423,64.134359 118.248884,64.134359 L118.072481,64.1336778 C116.368141,64.1205104 114.689885,63.9165442 113.059979,63.5292006 L112.869508,63.4829354 L112.869508,1.10363077 L113.059893,1.05748646 C114.746029,0.656772739 116.483911,0.452307692 118.248884,0.452307692 L118.425947,0.452307692 Z" id="path-8"></path>
    <filter x="-162.5%" y="-90.5%" width="424.9%" height="281.1%" filterUnits="objectBoundingBox" id="filter-9">
      <feMorphology radius="2.75" operator="dilate" in="SourceAlpha" result="shadowSpreadOuter1"></feMorphology>
      <feOffset dx="0" dy="0" in="shadowSpreadOuter1" result="shadowOffsetOuter1"></feOffset>
      <feMorphology radius="3.5" operator="erode" in="SourceAlpha" result="shadowInner"></feMorphology>
      <feOffset dx="0" dy="0" in="shadowInner" result="shadowInner"></feOffset>
      <feComposite in="shadowOffsetOuter1" in2="shadowInner" operator="out" result="shadowOffsetOuter1"></feComposite>
      <feGaussianBlur stdDeviation="11.5" in="shadowOffsetOuter1" result="shadowBlurOuter1"></feGaussianBlur>
      <feColorMatrix values="0 0 0 0 1   0 0 0 0 0   0 0 0 0 0.976016171  0 0 0 0.296437937 0" type="matrix" in="shadowBlurOuter1" result="shadowMatrixOuter1"></feColorMatrix>
      <feMorphology radius="1.25" operator="dilate" in="SourceAlpha" result="shadowSpreadOuter2"></feMorphology>
      <feOffset dx="0" dy="4" in="shadowSpreadOuter2" result="shadowOffsetOuter2"></feOffset>
      <feMorphology radius="2" operator="erode" in="SourceAlpha" result="shadowInner"></feMorphology>
      <feOffset dx="0" dy="4" in="shadowInner" result="shadowInner"></feOffset>
      <feComposite in="shadowOffsetOuter2" in2="shadowInner" operator="out" result="shadowOffsetOuter2"></feComposite>
      <feGaussianBlur stdDeviation="0.5" in="shadowOffsetOuter2" result="shadowBlurOuter2"></feGaussianBlur>
      <feColorMatrix values="0 0 0 0 0   0 0 0 0 0   0 0 0 0 0  0 0 0 0.470716783 0" type="matrix" in="shadowBlurOuter2" result="shadowMatrixOuter2"></feColorMatrix>
      <feMorphology radius="3.25" operator="dilate" in="SourceAlpha" result="shadowSpreadOuter3"></feMorphology>
      <feOffset dx="0" dy="5" in="shadowSpreadOuter3" result="shadowOffsetOuter3"></feOffset>
      <feMorphology radius="4" operator="erode" in="SourceAlpha" result="shadowInner"></feMorphology>
      <feOffset dx="0" dy="5" in="shadowInner" result="shadowInner"></feOffset>
      <feComposite in="shadowOffsetOuter3" in2="shadowInner" operator="out" result="shadowOffsetOuter3"></feComposite>
      <feGaussianBlur stdDeviation="0.5" in="shadowOffsetOuter3" result="shadowBlurOuter3"></feGaussianBlur>
      <feColorMatrix values="0 0 0 0 0   0 0 0 0 0   0 0 0 0 0  0 0 0 0.206457605 0" type="matrix" in="shadowBlurOuter3" result="shadowMatrixOuter3"></feColorMatrix>
      <feMorphology radius="0.75" operator="dilate" in="SourceAlpha" result="shadowSpreadOuter4"></feMorphology>
      <feOffset dx="0" dy="0" in="shadowSpreadOuter4" result="shadowOffsetOuter4"></feOffset>
      <feMorphology radius="1.5" operator="erode" in="SourceAlpha" result="shadowInner"></feMorphology>
      <feOffset dx="0" dy="0" in="shadowInner" result="shadowInner"></feOffset>
      <feComposite in="shadowOffsetOuter4" in2="shadowInner" operator="out" result="shadowOffsetOuter4"></feComposite>
      <feGaussianBlur stdDeviation="4.5" in="shadowOffsetOuter4" result="shadowBlurOuter4"></feGaussianBlur>
      <feColorMatrix values="0 0 0 0 0.885360054   0 0 0 0 0.301896307   0 0 0 0 0.759205731  0 0 0 0.421656469 0" type="matrix" in="shadowBlurOuter4" result="shadowMatrixOuter4"></feColorMatrix>
      <feMorphology radius="0.25" operator="dilate" in="SourceAlpha" result="shadowSpreadOuter5"></feMorphology>
      <feOffset dx="0" dy="0" in="shadowSpreadOuter5" result="shadowOffsetOuter5"></feOffset>
      <feMorphology radius="1" operator="erode" in="SourceAlpha" result="shadowInner"></feMorphology>
      <feOffset dx="0" dy="0" in="shadowInner" result="shadowInner"></feOffset>
      <feComposite in="shadowOffsetOuter5" in2="shadowInner" operator="out" result="shadowOffsetOuter5"></feComposite>
      <feGaussianBlur stdDeviation="20" in="shadowOffsetOuter5" result="shadowBlurOuter5"></feGaussianBlur>
      <feColorMatrix values="0 0 0 0 0.462745098   0 0 0 0 0.160784314   0 0 0 0 0.349019608  0 0 0 0.525923295 0" type="matrix" in="shadowBlurOuter5" result="shadowMatrixOuter5"></feColorMatrix>
      <feMorphology radius="0.25" operator="dilate" in="SourceAlpha" result="shadowSpreadOuter6"></feMorphology>
      <feOffset dx="0" dy="0" in="shadowSpreadOuter6" result="shadowOffsetOuter6"></feOffset>
      <feMorphology radius="1" operator="erode" in="SourceAlpha" result="shadowInner"></feMorphology>
      <feOffset dx="0" dy="0" in="shadowInner" result="shadowInner"></feOffset>
      <feComposite in="shadowOffsetOuter6" in2="shadowInner" operator="out" result="shadowOffsetOuter6"></feComposite>
      <feGaussianBlur stdDeviation="0.5" in="shadowOffsetOuter6" result="shadowBlurOuter6"></feGaussianBlur>
      <feColorMatrix values="0 0 0 0 0   0 0 0 0 0   0 0 0 0 0  0 0 0 0.5 0" type="matrix" in="shadowBlurOuter6" result="shadowMatrixOuter6"></feColorMatrix>
      <feMorphology radius="0.25" operator="dilate" in="SourceAlpha" result="shadowSpreadOuter7"></feMorphology>
      <feOffset dx="0" dy="0" in="shadowSpreadOuter7" result="shadowOffsetOuter7"></feOffset>
      <feMorphology radius="1" operator="erode" in="SourceAlpha" result="shadowInner"></feMorphology>
      <feOffset dx="0" dy="0" in="shadowInner" result="shadowInner"></feOffset>
      <feComposite in="shadowOffsetOuter7" in2="shadowInner" operator="out" result="shadowOffsetOuter7"></feComposite>
      <feGaussianBlur stdDeviation="0.5" in="shadowOffsetOuter7" result="shadowBlurOuter7"></feGaussianBlur>
      <feColorMatrix values="0 0 0 0 0.905655571   0 0 0 0 0.659137091   0 0 0 0 0.852354278  0 0 0 0.721235795 0" type="matrix" in="shadowBlurOuter7" result="shadowMatrixOuter7"></feColorMatrix>
      <feMerge>
        <feMergeNode in="shadowMatrixOuter1"></feMergeNode>
        <feMergeNode in="shadowMatrixOuter2"></feMergeNode>
        <feMergeNode in="shadowMatrixOuter3"></feMergeNode>
        <feMergeNode in="shadowMatrixOuter4"></feMergeNode>
        <feMergeNode in="shadowMatrixOuter5"></feMergeNode>
        <feMergeNode in="shadowMatrixOuter6"></feMergeNode>
        <feMergeNode in="shadowMatrixOuter7"></feMergeNode>
      </feMerge>
    </filter>
    <filter x="-117.5%" y="-65.5%" width="335.0%" height="231.0%" filterUnits="objectBoundingBox" id="filter-10">
      <feMorphology radius="1" operator="erode" in="SourceAlpha" result="shadowSpreadInner1"></feMorphology>
      <feGaussianBlur stdDeviation="2" in="shadowSpreadInner1" result="shadowBlurInner1"></feGaussianBlur>
      <feOffset dx="0" dy="0" in="shadowBlurInner1" result="shadowOffsetInner1"></feOffset>
      <feComposite in="shadowOffsetInner1" in2="SourceAlpha" operator="arithmetic" k2="-1" k3="1" result="shadowInnerInner1"></feComposite>
      <feColorMatrix values="0 0 0 0 0.176470588   0 0 0 0 0.0745098039   0 0 0 0 0.0745098039  0 0 0 1 0" type="matrix" in="shadowInnerInner1"></feColorMatrix>
    </filter>
    <path d="M40.1050987,0.581538462 C41.8801552,0.581538462 43.6282984,0.788264836 45.3244231,1.19356263 C45.4059162,1.21303582 45.4649978,1.28225927 45.4725139,1.36432073 L45.4733246,1.38208837 L45.473718,45.5433785 L45.4869642,45.7395081 C45.5073654,46.0657326 45.5208003,46.3930923 45.5272273,46.7218505 L45.5307329,46.9686855 L45.5316441,47.1747997 L45.530249,47.3069908 L45.5507832,47.450677 C46.3069858,52.4974975 50.3532863,56.4517658 55.4164186,57.0977389 L55.5701557,57.1162989 L55.7276575,57.1331358 C55.8199068,57.1423544 55.892742,57.2154755 55.9015151,57.3076757 C56.0660406,59.0367507 56.0273633,60.7900652 55.7809842,62.5413694 C55.5145066,64.4355367 55.0138771,66.2649521 54.2939322,67.9996963 C54.2605487,68.0801356 54.1775692,68.128465 54.0910513,68.1178594 C48.9168629,67.4835921 44.1733449,65.0905823 40.591573,61.3892464 L40.5472363,61.3431323 L40.4270077,61.4919066 C36.2272304,66.6318095 29.9836825,69.7232544 23.2153494,69.8454661 L23.0100893,69.8482597 L22.7981546,69.8492308 C10.2428558,69.8492308 0.0646558374,59.6967602 0.0646558374,47.1729058 C0.0646558374,34.6490515 10.2428558,24.4965809 22.7981546,24.4965809 C26.8177494,24.4965809 30.68439,25.5389154 34.0912088,27.4879504 L34.2071717,27.5547458 L34.254695,27.5824985 L34.2542037,1.50321159 C34.2542023,1.42734985 34.2982968,1.3596979 34.3650158,1.32808325 L34.3821545,1.32094647 L34.398848,1.31574843 C36.2460356,0.829972708 38.1592294,0.581538462 40.1050987,0.581538462 Z M40.1050987,0.969230769 C38.3085532,0.969230769 36.5406528,1.18465959 34.8283554,1.60645517 L34.6422626,1.65312 L34.6427839,27.9229464 C34.6427865,28.0624786 34.5017338,28.1525267 34.3782489,28.1036814 L34.3629163,28.0968459 L34.34841,28.0888727 C30.8921319,26.0031339 26.92771,24.8842732 22.7981546,24.8842732 C10.4570575,24.8842732 0.452740944,34.8632999 0.452740944,47.1729058 C0.452740944,59.4825118 10.4570575,69.4615385 22.7981546,69.4615385 C29.7477894,69.4615385 36.1704792,66.2767453 40.3817107,60.9284152 C40.4508843,60.8405636 40.5785847,60.8300511 40.6611321,60.9015919 L40.6752095,60.9150695 L40.7648061,61.0097196 C44.22633,64.6361279 48.8139808,67.0071386 53.8306448,67.6931609 L53.9915392,67.7144677 L54.0011238,67.6911458 C54.6299885,66.1411771 55.0815234,64.5154609 55.3448775,62.8357113 L55.3714493,62.6617523 L55.3966759,62.487413 C55.6226799,60.8809389 55.6708544,59.2730102 55.5448395,57.6844618 L55.5293912,57.5018769 L55.5261719,57.5014937 C50.269885,56.9029113 46.042074,52.8611772 45.1917096,47.6658772 L45.1669772,47.5080932 L45.1438865,47.3463757 L45.1421357,47.3184321 L45.1435682,47.1729058 C45.1435682,46.7108688 45.1294765,46.250537 45.1014074,45.7923244 L45.0862086,45.5633966 L45.0857151,45.549582 L45.0851154,1.53552 L45.0673105,1.53144449 C43.564315,1.18473877 42.0204788,0.996281986 40.4536533,0.971936963 L40.2794679,0.969230769 L40.1050987,0.969230769 Z M22.7981546,35.0520219 C28.957598,35.0520219 34.0840125,39.7502243 34.6457356,45.8389574 C34.6473808,45.856791 34.6465612,45.8742447 34.6435671,45.8909979 L34.6429095,45.8935938 L34.6431593,45.9177595 C34.6460506,46.2852164 34.657912,46.6500142 34.6787582,47.0119429 L34.6923442,47.2287542 L34.6927268,47.2466728 C34.5320586,53.6868223 29.256835,58.8372449 22.7981546,58.8372449 C16.2268616,58.8372449 10.8998186,53.512718 10.8998186,46.9446334 C10.8998186,40.3765489 16.2268616,35.0520219 22.7981546,35.0520219 Z M22.7981546,35.4397142 C16.441242,35.4397142 11.2879037,40.5906186 11.2879037,46.9446334 C11.2879037,53.2986483 16.441242,58.4495526 22.7981546,58.4495526 C28.9836173,58.4495526 34.0471567,53.5661975 34.2986189,47.4235364 L34.3044992,47.2459938 L34.2913163,47.0342519 C34.274342,46.7395464 34.2632216,46.4429755 34.2579448,46.1444875 L34.2550826,45.9202613 L34.2549423,45.8483871 L34.2556005,45.8381538 L34.2416659,45.6982521 C33.6229509,39.9529844 28.7959394,35.5298447 22.976604,35.4410746 L22.7981546,35.4397142 Z" id="path-11"></path>
    <filter x="-113.1%" y="-91.3%" width="326.1%" height="282.6%" filterUnits="objectBoundingBox" id="filter-12">
      <feMorphology radius="2.75" operator="dilate" in="SourceAlpha" result="shadowSpreadOuter1"></feMorphology>
      <feOffset dx="0" dy="0" in="shadowSpreadOuter1" result="shadowOffsetOuter1"></feOffset>
      <feMorphology radius="3.5" operator="erode" in="SourceAlpha" result="shadowInner"></feMorphology>
      <feOffset dx="0" dy="0" in="shadowInner" result="shadowInner"></feOffset>
      <feComposite in="shadowOffsetOuter1" in2="shadowInner" operator="out" result="shadowOffsetOuter1"></feComposite>
      <feGaussianBlur stdDeviation="11.5" in="shadowOffsetOuter1" result="shadowBlurOuter1"></feGaussianBlur>
      <feColorMatrix values="0 0 0 0 1   0 0 0 0 0   0 0 0 0 0.976016171  0 0 0 0.296437937 0" type="matrix" in="shadowBlurOuter1" result="shadowMatrixOuter1"></feColorMatrix>
      <feMorphology radius="1.25" operator="dilate" in="SourceAlpha" result="shadowSpreadOuter2"></feMorphology>
      <feOffset dx="0" dy="4" in="shadowSpreadOuter2" result="shadowOffsetOuter2"></feOffset>
      <feMorphology radius="2" operator="erode" in="SourceAlpha" result="shadowInner"></feMorphology>
      <feOffset dx="0" dy="4" in="shadowInner" result="shadowInner"></feOffset>
      <feComposite in="shadowOffsetOuter2" in2="shadowInner" operator="out" result="shadowOffsetOuter2"></feComposite>
      <feGaussianBlur stdDeviation="0.5" in="shadowOffsetOuter2" result="shadowBlurOuter2"></feGaussianBlur>
      <feColorMatrix values="0 0 0 0 0   0 0 0 0 0   0 0 0 0 0  0 0 0 0.470716783 0" type="matrix" in="shadowBlurOuter2" result="shadowMatrixOuter2"></feColorMatrix>
      <feMorphology radius="3.25" operator="dilate" in="SourceAlpha" result="shadowSpreadOuter3"></feMorphology>
      <feOffset dx="0" dy="5" in="shadowSpreadOuter3" result="shadowOffsetOuter3"></feOffset>
      <feMorphology radius="4" operator="erode" in="SourceAlpha" result="shadowInner"></feMorphology>
      <feOffset dx="0" dy="5" in="shadowInner" result="shadowInner"></feOffset>
      <feComposite in="shadowOffsetOuter3" in2="shadowInner" operator="out" result="shadowOffsetOuter3"></feComposite>
      <feGaussianBlur stdDeviation="0.5" in="shadowOffsetOuter3" result="shadowBlurOuter3"></feGaussianBlur>
      <feColorMatrix values="0 0 0 0 0   0 0 0 0 0   0 0 0 0 0  0 0 0 0.206457605 0" type="matrix" in="shadowBlurOuter3" result="shadowMatrixOuter3"></feColorMatrix>
      <feMorphology radius="0.75" operator="dilate" in="SourceAlpha" result="shadowSpreadOuter4"></feMorphology>
      <feOffset dx="0" dy="0" in="shadowSpreadOuter4" result="shadowOffsetOuter4"></feOffset>
      <feMorphology radius="1.5" operator="erode" in="SourceAlpha" result="shadowInner"></feMorphology>
      <feOffset dx="0" dy="0" in="shadowInner" result="shadowInner"></feOffset>
      <feComposite in="shadowOffsetOuter4" in2="shadowInner" operator="out" result="shadowOffsetOuter4"></feComposite>
      <feGaussianBlur stdDeviation="4.5" in="shadowOffsetOuter4" result="shadowBlurOuter4"></feGaussianBlur>
      <feColorMatrix values="0 0 0 0 0.885360054   0 0 0 0 0.301896307   0 0 0 0 0.759205731  0 0 0 0.421656469 0" type="matrix" in="shadowBlurOuter4" result="shadowMatrixOuter4"></feColorMatrix>
      <feMorphology radius="0.25" operator="dilate" in="SourceAlpha" result="shadowSpreadOuter5"></feMorphology>
      <feOffset dx="0" dy="0" in="shadowSpreadOuter5" result="shadowOffsetOuter5"></feOffset>
      <feMorphology radius="1" operator="erode" in="SourceAlpha" result="shadowInner"></feMorphology>
      <feOffset dx="0" dy="0" in="shadowInner" result="shadowInner"></feOffset>
      <feComposite in="shadowOffsetOuter5" in2="shadowInner" operator="out" result="shadowOffsetOuter5"></feComposite>
      <feGaussianBlur stdDeviation="20" in="shadowOffsetOuter5" result="shadowBlurOuter5"></feGaussianBlur>
      <feColorMatrix values="0 0 0 0 0.462745098   0 0 0 0 0.160784314   0 0 0 0 0.349019608  0 0 0 0.525923295 0" type="matrix" in="shadowBlurOuter5" result="shadowMatrixOuter5"></feColorMatrix>
      <feMorphology radius="0.25" operator="dilate" in="SourceAlpha" result="shadowSpreadOuter6"></feMorphology>
      <feOffset dx="0" dy="0" in="shadowSpreadOuter6" result="shadowOffsetOuter6"></feOffset>
      <feMorphology radius="1" operator="erode" in="SourceAlpha" result="shadowInner"></feMorphology>
      <feOffset dx="0" dy="0" in="shadowInner" result="shadowInner"></feOffset>
      <feComposite in="shadowOffsetOuter6" in2="shadowInner" operator="out" result="shadowOffsetOuter6"></feComposite>
      <feGaussianBlur stdDeviation="0.5" in="shadowOffsetOuter6" result="shadowBlurOuter6"></feGaussianBlur>
      <feColorMatrix values="0 0 0 0 0   0 0 0 0 0   0 0 0 0 0  0 0 0 0.5 0" type="matrix" in="shadowBlurOuter6" result="shadowMatrixOuter6"></feColorMatrix>
      <feMorphology radius="0.25" operator="dilate" in="SourceAlpha" result="shadowSpreadOuter7"></feMorphology>
      <feOffset dx="0" dy="0" in="shadowSpreadOuter7" result="shadowOffsetOuter7"></feOffset>
      <feMorphology radius="1" operator="erode" in="SourceAlpha" result="shadowInner"></feMorphology>
      <feOffset dx="0" dy="0" in="shadowInner" result="shadowInner"></feOffset>
      <feComposite in="shadowOffsetOuter7" in2="shadowInner" operator="out" result="shadowOffsetOuter7"></feComposite>
      <feGaussianBlur stdDeviation="0.5" in="shadowOffsetOuter7" result="shadowBlurOuter7"></feGaussianBlur>
      <feColorMatrix values="0 0 0 0 0.905655571   0 0 0 0 0.659137091   0 0 0 0 0.852354278  0 0 0 0.721235795 0" type="matrix" in="shadowBlurOuter7" result="shadowMatrixOuter7"></feColorMatrix>
      <feMerge>
        <feMergeNode in="shadowMatrixOuter1"></feMergeNode>
        <feMergeNode in="shadowMatrixOuter2"></feMergeNode>
        <feMergeNode in="shadowMatrixOuter3"></feMergeNode>
        <feMergeNode in="shadowMatrixOuter4"></feMergeNode>
        <feMergeNode in="shadowMatrixOuter5"></feMergeNode>
        <feMergeNode in="shadowMatrixOuter6"></feMergeNode>
        <feMergeNode in="shadowMatrixOuter7"></feMergeNode>
      </feMerge>
    </filter>
    <filter x="-81.8%" y="-66.0%" width="263.6%" height="232.1%" filterUnits="objectBoundingBox" id="filter-13">
      <feMorphology radius="1" operator="erode" in="SourceAlpha" result="shadowSpreadInner1"></feMorphology>
      <feGaussianBlur stdDeviation="2" in="shadowSpreadInner1" result="shadowBlurInner1"></feGaussianBlur>
      <feOffset dx="0" dy="0" in="shadowBlurInner1" result="shadowOffsetInner1"></feOffset>
      <feComposite in="shadowOffsetInner1" in2="SourceAlpha" operator="arithmetic" k2="-1" k3="1" result="shadowInnerInner1"></feComposite>
      <feColorMatrix values="0 0 0 0 0.176470588   0 0 0 0 0.0745098039   0 0 0 0 0.0745098039  0 0 0 1 0" type="matrix" in="shadowInnerInner1"></feColorMatrix>
    </filter>
  </defs>
  <g id="splash-screen" stroke="none" stroke-width="1" fill="none" fill-rule="evenodd">
    <g id="splash_mdpi" transform="translate(-67.000000, -250.000000)">
      <g id="dish-white" opacity="0" transform="translate(92.000000, 255.500000)" fill="#DF95CF">
        <g id="Group" stroke-width="1" transform="translate(21.284785, 32.800000)">
          <path d="M79.0440488,11.7437229 C86.0285218,11.7437229 91.8911886,16.3557476 93.5093251,22.3238057 C90.947673,23.7140587 88.0483118,24.5589202 84.9656,24.7043728 C84.5832462,22.249578 81.92288,20.5074976 79.1333202,20.5074976 C76.1181874,20.5074976 73.8839156,21.5894693 73.8839156,24.4707081 C73.8839156,26.5900377 75.6243489,27.1413643 79.0136023,27.1413643 C87.5657189,27.1413643 93.7882618,30.3693593 93.9199139,37.8300088 L93.9219112,38.0565282 C93.9219112,45.6216554 88.2436303,51.1226551 79.0136023,51.1226551 C72.3476301,51.1226551 66.7034852,46.7394908 64.7958763,41.1426144 C67.2222898,39.4670794 70.0378273,38.3164467 73.0796749,37.852551 C73.4031183,40.359209 76.0973848,42.1482979 78.924331,42.1482979 C81.9394637,42.1482979 84.1737355,40.7448332 84.1737355,37.974505 C84.1737355,36.2253802 82.1783008,35.3618367 79.3964479,35.2190594 L79.1332887,35.2082512 L79.0440488,35.2090229 C70.8927535,35.2090229 64.2693893,32.0758537 64.1377372,24.6152043 L64.1357399,24.3886849 C64.1357399,16.8235576 70.8104172,11.7437229 79.0440488,11.7437229 Z" id="Path-2"></path>
          <path d="M52.9313241,5.3010101 C54.7315693,5.3010101 56.4760543,5.53937192 58.1348464,5.98620986 L58.1352941,44.061962 C56.4763682,44.5088776 54.7317313,44.7472823 52.9313241,44.7472823 C51.1799037,44.7472823 49.4812599,44.5216745 47.8629555,44.0979782 L47.8630014,5.95030219 C49.481292,5.52661369 51.1799203,5.3010101 52.9313241,5.3010101 Z" id="Rectangle-3"></path>
          <path d="M104.37498,-1.94891722e-14 C106.083359,-1.94891722e-14 107.741523,0.214655364 109.323893,0.618426073 L109.323075,23.7604164 C111.411754,22.7638132 113.730434,22.1890462 116.175058,22.1428469 L116.49487,22.1398272 C125.896515,22.1398272 133.518054,29.9573201 133.518054,39.6006863 C133.518054,39.6618259 133.517748,39.7228922 133.517137,39.7838836 L133.531028,39.7830152 L133.469546,60.8471937 C131.915589,61.2356119 130.289297,61.441847 128.614761,61.441847 C126.890984,61.441847 125.218331,61.2233048 123.62308,60.8124571 L123.678814,39.806 L123.672619,39.8064727 C123.673087,39.7721709 123.673321,39.7378119 123.673321,39.7033972 C123.673321,35.6758737 120.459419,32.4109208 116.49487,32.4109208 C112.631541,32.4109208 109.481018,35.5112856 109.322663,39.3964475 L109.323894,56.0417243 C107.741587,56.4456538 106.083392,56.6603175 104.37498,56.6603175 C102.673388,56.6603175 101.021613,56.4473643 99.4449303,56.0466948 L99.4446292,0.613699169 C101.021403,0.212980271 102.67328,-1.94891722e-14 104.37498,-1.94891722e-14 Z" id="Rectangle-2"></path>
          <path d="M35.330418,0.137758538 C36.9193648,0.137758538 38.4642558,0.32603822 39.9439208,0.681466023 L39.9444394,40.3710081 C39.9552358,40.6187958 39.9614897,40.867758 39.9631202,41.117814 C40.5062527,46.01669 44.483378,49.8801087 49.4356231,50.2534532 L49.4359836,52.3800522 C49.4221205,52.5573986 49.4058372,52.7350848 49.3871065,52.913077 C49.1356574,55.3025343 48.4642852,57.5464403 47.4538687,59.5794213 C42.8980587,58.9471216 38.838017,56.777225 35.8172676,53.6133624 L35.7257164,53.5155812 C32.0682331,58.1730011 26.3757177,61.16633 19.9817756,61.16633 C8.94614564,61.16633 -3.25241928e-15,52.2494834 -3.25241928e-15,41.2499956 C-3.25241928e-15,30.2505079 8.94614564,21.3336613 19.9817756,21.3336613 C23.7686334,21.3336613 27.3094528,22.3836268 30.3271838,24.2074151 L30.3276296,0.779215936 C31.9248918,0.36065059 33.6015775,0.137758538 35.330418,0.137758538 Z M19.9817756,30.6843069 C14.2511914,30.6843069 9.60563503,35.3241911 9.60563503,41.0477782 C9.60563503,46.7713653 14.2511914,51.4112494 19.9817756,51.4112494 C25.7123597,51.4112494 30.3579161,46.7713653 30.3579161,41.0477782 C30.3579161,35.3241911 25.7123597,30.6843069 19.9817756,30.6843069 Z" id="Oval-2"></path>
        </g>
        <g id="d" transform="translate(21.284763, 33.257143)">
          <path d="M35.248424,0 C36.8245775,0 38.3572766,0.185775381 39.825758,0.53659336 L39.8256993,39.5925028 C39.8598001,40.0678468 39.8771434,40.5478145 39.8771434,41.0318215 L39.8764259,41.1662955 C40.514682,45.8524556 44.3085955,49.5361148 49.0493308,50.0105813 C49.1935446,51.5065589 49.1641849,53.0443303 48.9454487,54.5991215 C48.7087207,56.2818004 48.2642743,57.8842399 47.6416221,59.3842334 C42.9658649,58.8115336 38.793607,56.6186512 35.7077803,53.3867632 L35.6284689,53.3019886 C31.9781604,57.9369449 26.3070448,60.9142857 19.9385717,60.9142857 C8.92680262,60.9142857 0,52.0126033 0,41.0318215 C0,30.0510397 8.92680262,21.1493573 19.9385717,21.1493573 C23.7101525,21.1493573 27.2371472,22.1936079 30.2446578,24.0079846 L30.2442584,0.64367213 C31.8417021,0.223688397 33.5189018,0 35.248424,0 Z M19.9385717,30.484101 C14.220378,30.484101 9.58486609,35.1160945 9.58486609,40.8299479 C9.58486609,46.5438014 14.220378,51.1757948 19.9385717,51.1757948 C25.5706973,51.1757948 30.152488,46.6821901 30.2891389,41.087209 C30.2693436,40.8033297 30.2565152,40.5171823 30.2498554,40.2295161 L30.2454828,39.8679285 C29.7620894,34.6047502 25.3319107,30.484101 19.9385717,30.484101 Z" id="Oval-2"></path>
        </g>
      </g>
      <g id="dish-white" transform="translate(102.500000, 282.500000)">
        <g id="Group" transform="translate(0.500000, 0.500000)" stroke-linejoin="round">
          <g id="Path-2">
            <use fill="black" fill-opacity="1" filter="url(#filter-3)" xlink:href="#path-2"></use>
            <use fill="black" fill-opacity="1" filter="url(#filter-4)" xlink:href="#path-2"></use>
            <use stroke="#DF95CF" stroke-width="0.5" xlink:href="#path-2"></use>
          </g>
          <g id="Rectangle-3">
            <use fill="black" fill-opacity="1" filter="url(#filter-6)" xlink:href="#path-5"></use>
            <use fill="black" fill-opacity="1" filter="url(#filter-7)" xlink:href="#path-5"></use>
            <use stroke="#DF95CF" stroke-width="0.5" xlink:href="#path-5"></use>
          </g>
          <g id="Rectangle-2">
            <use fill="black" fill-opacity="1" filter="url(#filter-9)" xlink:href="#path-8"></use>
            <use fill="black" fill-opacity="1" filter="url(#filter-10)" xlink:href="#path-8"></use>
            <use stroke="#DF95CF" stroke-width="0.5" xlink:href="#path-8"></use>
          </g>
          <g id="Oval-2">
            <use fill="black" fill-opacity="1" filter="url(#filter-12)" xlink:href="#path-11"></use>
            <use fill="black" fill-opacity="1" filter="url(#filter-13)" xlink:href="#path-11"></use>
            <use stroke="#DF95CF" stroke-width="0.5" xlink:href="#path-11"></use>
          </g>
        </g>
        <g id="d" transform="translate(1.500000, 1.500000)"></g>
      </g>
    </g>
  </g>
</svg>
