<?xml version="1.0" encoding="UTF-8"?>
<svg width="1303px" height="608px" viewBox="0 0 1303 608" version="1.1" xmlns="http://www.w3.org/2000/svg" xmlns:xlink="http://www.w3.org/1999/xlink">
    <title>dish-colorful</title>
    <g id="base" stroke="none" stroke-width="1" fill="none" fill-rule="evenodd">
        <g id="dish-copy-2" transform="translate(-124.000000, -446.000000)">
            <path d="M876.7372,593.757576 C919.615653,593.757576 983.578863,614.039619 1008.18392,673.737093 C988.88072,692.680667 962.429798,704.360269 933.250958,704.360269 C932.585593,704.360269 931.921646,704.354196 931.259171,704.342102 C923.859926,680.693979 894.462723,678.440604 879.517309,678.440604 C862.833388,678.440604 841.644672,687.907856 841.644672,707.118695 C841.644672,719.66283 853.853685,725.486938 879.471138,725.486938 C954.204976,725.486938 1013.58151,748.731894 1014.73198,814.012577 L1014.74943,815.994621 C1014.74943,882.189485 960.128997,932.323232 879.471138,932.323232 C823.599236,932.323232 768.797717,895.452364 748.730037,849.010645 C767.868459,827.814808 794.961236,814.205387 825.000193,814.205387 C827.639477,814.205387 830.256017,814.302938 832.846417,814.494638 C836.675777,834.551862 860.486979,842.797607 878.691029,842.797607 C898.544922,842.797607 919.563666,835.517291 919.563666,815.276918 C919.563666,801.4938 905.019423,796.951388 880.51785,796.06808 L879.7372,796.07895 C808.505994,796.07895 746.626823,773.66372 745.476363,708.383037 L745.458909,706.400992 C745.458909,644.206129 806.786486,593.757576 876.7372,593.757576 Z" id="Path-2" fill="#F4B124"></path>
            <path d="M640.547594,530.461279 C657.595477,530.461279 673.712174,534.448157 688.016164,541.54039 L688.016164,851.382169 C673.712174,858.474402 657.595477,862.461279 640.547594,862.461279 C623.570716,862.461279 607.517283,858.507544 593.257848,851.470625 L593.257848,541.451933 C607.517283,534.415015 623.570716,530.461279 640.547594,530.461279 Z" id="Rectangle-3" fill="#1BE36D"></path>
            <path d="M1117.20287,474.888889 C1133.98215,474.888889 1149.86337,478.732623 1164.01351,485.587335 L1164.01302,680.560104 C1180.30664,673.925755 1198.01363,670.152058 1216.5431,669.844307 L1219.00631,669.823865 C1300.44806,669.823865 1366.62384,736.77864 1367.93922,819.884706 L1367.94857,821.201889 L1367.87857,821.201889 L1367.34426,1007.02952 C1353.11103,1013.98497 1337.11301,1017.88889 1320.20287,1017.88889 C1303.47045,1017.88889 1287.63107,1014.06659 1273.51081,1007.24779 L1273.99957,821.202889 L1273.99938,821.20363 C1274.00399,820.904821 1274.00631,820.605444 1274.00631,820.305517 C1274.00631,789.377571 1249.38197,764.305517 1219.00631,764.305517 C1188.89635,764.305517 1164.43754,788.940864 1164.01195,819.495266 L1164.01257,821.089889 L1164.01417,821.202865 L1164.01257,821.201889 L1164.01403,971.668225 C1150.11718,978.223517 1134.58822,981.888889 1118.20287,981.888889 C1100.74704,981.888889 1084.26315,977.728941 1069.6891,970.346648 L1069.68973,485.930828 C1084.01591,478.86116 1100.14535,474.888889 1117.20287,474.888889 Z" id="Rectangle-2" fill="#8D1BEF"></path>
            <path d="M469.617244,476.147568 C486.235833,476.147568 501.973486,479.928209 516.020872,486.678247 L516.016532,838.939131 C519.489906,878.522803 552.156313,909.732267 592.35695,910.908722 C596.258446,922.023963 598.379079,933.975242 598.379079,946.420569 C598.379079,968.607427 591.640566,989.223602 580.093951,1006.34265 C538.177109,1002.87477 500.452332,984.636564 472.13649,956.845109 C440.208122,993.112099 393.398868,1016 341.235734,1016 C245.007889,1016 166.999807,938.110279 166.999807,842.028438 C166.999807,745.946597 245.007889,668.056876 341.235734,668.056876 C370.099293,668.056876 397.323617,675.064622 421.295227,687.469082 L421.294023,487.62441 C435.821133,480.282483 452.237445,476.147568 469.617244,476.147568 Z M341.235734,761.262044 C297.605239,761.262044 262.235734,796.631549 262.235734,840.262044 C262.235734,883.89254 297.605239,919.262044 341.235734,919.262044 C384.86623,919.262044 420.235734,883.89254 420.235734,840.262044 C420.235734,796.631549 384.86623,761.262044 341.235734,761.262044 Z" id="Oval-2" fill="#E51878"></path>
        </g>
    </g>
</svg>