<?xml version="1.0" encoding="UTF-8"?>
<svg width="1496px" height="894px" viewBox="0 0 1496 894" version="1.1" xmlns="http://www.w3.org/2000/svg" xmlns:xlink="http://www.w3.org/1999/xlink">
    <!-- Generator: Sketch 61 (89581) - https://sketch.com -->
    <title>logo</title>
    <desc>Created with Sketch.</desc>
    <g id="logo" stroke="none" stroke-width="1" fill="none" fill-rule="evenodd">
        <path d="M844.136663,291 C886.969058,291 950.86366,311.308253 975.44192,371.082963 C956.158629,390.050252 929.736499,401.744585 900.589452,401.744585 C899.924847,401.744585 899.261658,401.738505 898.599939,401.726397 C891.20842,378.047923 861.84303,375.791668 846.913773,375.791668 C830.247852,375.791668 809.081994,385.271065 809.081994,404.50655 C809.081994,417.066777 821.277836,422.898356 846.867652,422.898356 C921.520864,422.898356 980.833346,446.173133 981.982565,511.537564 L982,513.522152 C982,579.801936 927.438494,630 846.867652,630 C791.056142,630 736.313856,593.081983 716.267724,546.58082 C735.385033,525.357674 762.448733,511.730622 792.455473,511.730622 C795.091815,511.730622 797.705439,511.828292 800.292954,512.020223 C804.11846,532.1032 827.903974,540.359523 846.088384,540.359523 C865.920858,540.359523 886.916927,533.069867 886.916927,512.803528 C886.916927,499.002728 872.388374,494.454489 847.913235,493.570047 L847.133427,493.580931 C775.979067,493.580931 714.166654,471.136945 713.017435,405.772514 L713,403.787926 C713,341.513274 774.261415,291 844.136663,291 Z" id="Path-2" fill="#FF276F"></path>
        <path d="M608.409926,228 C625.900125,228 642.412678,232.175175 657.000478,239.580821 L657.000478,548.419179 C642.412678,555.824825 625.900125,560 608.409926,560 C590.991876,560 574.543423,555.859199 560,548.51066 L560,239.48934 C574.543423,232.140801 590.991876,228 608.409926,228 Z" id="Rectangle-3" fill="#FF276F"></path>
        <path d="M1078.48064,173 C1096.44537,173 1113.37996,177.41209 1128.26064,185.212142 L1128.25753,376.026161 C1145.28885,369.190533 1163.82501,365.438404 1183.21476,365.438404 C1265.77581,365.438404 1332.63216,433.465825 1333.96104,517.903289 L1333.972,519.212 L1333.98581,519.212494 L1333.45931,702.525165 C1318.0247,711.110081 1300.25389,716 1281.34137,716 C1265.01398,716 1249.5375,712.355512 1235.68053,705.835387 L1236.17038,519.212494 L1236.185,519.212 L1236.20726,518.340803 C1236.21225,518.032651 1236.21476,517.723884 1236.21476,517.41452 C1236.21476,487.033261 1212.03813,462.404384 1182.21476,462.404384 C1153.12043,462.404384 1129.40016,485.84384 1128.25783,515.197037 L1128.26008,668.305208 C1113.62256,675.782729 1097.04358,680 1079.47995,680 C1062.03609,680 1045.56351,675.840052 1030.99946,668.457759 L1031.00025,184.041858 C1045.31656,176.972241 1061.43488,173 1078.48064,173 Z" id="Rectangle-2" fill="#FF276F"></path>
        <path d="M447.644868,174 C464.26457,174 480.003297,177.781494 494.051704,184.533077 L494.048327,536.890328 C497.151953,572.26877 523.564721,600.95969 557.834665,607.508301 C558.519253,619.789517 557.085627,632.397656 553.276823,644.845287 C546.846443,665.860543 534.547392,683.472479 518.720004,696.439613 C490.687948,687.34907 465.756129,671.375803 445.916414,650.513034 C444.950761,649.497587 443.997172,648.470557 443.055877,647.432173 C411.481241,679.276237 367.672926,699 319.251721,699 C223.015153,699 145,621.088987 145,524.980883 C145,428.872779 223.015153,350.961766 319.251721,350.961766 C348.117898,350.961766 375.344692,357.971429 399.318476,370.379281 L399.316704,185.480263 C413.84527,178.136151 430.26327,174 447.644868,174 Z M319.251721,447.214007 C277.237336,447.214007 243.177948,481.240366 243.177948,523.214007 C243.177948,565.187648 277.237336,599.214007 319.251721,599.214007 C361.266106,599.214007 395.325495,565.187648 395.325495,523.214007 C395.325495,481.240366 361.266106,447.214007 319.251721,447.214007 Z" id="Oval-2" fill="#FF276F"></path>
    </g>
</svg>