<?xml version="1.0" encoding="UTF-8"?>
<svg width="50px" height="50px" viewBox="0 0 50 50" version="1.1" xmlns="http://www.w3.org/2000/svg" xmlns:xlink="http://www.w3.org/1999/xlink">
    <!-- Generator: Sketch 54.1 (76490) - https://sketchapp.com -->
    <title>mark-solid</title>
    <desc>Created with Sketch.</desc>
    <g id="Page-1" stroke="none" stroke-width="1" fill="none" fill-rule="evenodd">
        <g id="orbit-logo" transform="translate(-9.000000, -15.000000)" fill-rule="nonzero">
            <g id="Group" transform="translate(10.000000, 14.000000)">
                <path d="M11.2378332,12.228128 C21.6820678,8.06459243 28.1695144,7.28309032 39.1110507,4.96939692 C48.659758,2.95023065 51.0564526,15.5594993 43.2983362,21.2456533 C33.1682768,28.6702746 30.4765322,22.0306249 25.253038,41.9142473 C22.8561985,51.0379969 6.79116848,49.6661702 5.92071273,41.8381289 C4.75573283,31.3614211 5.02478668,33.1233254 5.11961008,25.1631835 C5.19690162,18.6747877 6.48938901,14.1210685 11.2378332,12.228128 Z" id="notch-copy-3" fill="#8C60F9" transform="translate(26.475645, 26.498673) rotate(-14.000000) translate(-26.475645, -26.498673) "></path>
                <path d="M9.14712903,12.4971861 C19.563749,8.34465899 26.0340426,7.56522321 36.9466497,5.25764723 C46.4701101,3.24381965 49.1021489,15.8894501 41.3645449,21.5605699 C35.1385811,26.1237637 22.0224486,31.2539927 12.8760212,31.3423911 C7.17994739,31.3974425 3.00878859,28.4448104 3.04508255,25.3980414 C3.12216972,18.9268009 4.41123977,14.3851218 9.14712903,12.4971861 Z" id="notch-copy-4" fill="#FF5959" transform="translate(24.469848, 18.192853) rotate(-14.000000) translate(-24.469848, -18.192853) "></path>
                <path d="M8.24677954,11.7938995 C18.6910143,7.6303639 25.1784606,6.8488618 36.1199971,4.53516841 C45.6687045,2.51600214 48.3077207,15.1951564 40.5496041,20.8813104 C30.4195447,28.3059317 3.49833539,13.68684 8.24677954,11.7938995 Z" id="notch-copy-5" fill="#F4CA5F" transform="translate(26.391157, 13.644252) rotate(-14.000000) translate(-26.391157, -13.644252) "></path>
            </g>
        </g>
    </g>
</svg>
