<?xml version="1.0" encoding="UTF-8"?>
<svg width="203px" height="56px" viewBox="0 0 203 56" version="1.1" xmlns="http://www.w3.org/2000/svg" xmlns:xlink="http://www.w3.org/1999/xlink">
    <!-- Generator: Sketch 54.1 (76490) - https://sketchapp.com -->
    <title>callout-arrow</title>
    <desc>Created with Sketch.</desc>
    <g id="Page-1" stroke="none" stroke-width="1" fill="none" fill-rule="evenodd">
        <g id="home" transform="translate(-305.000000, -2891.000000)" fill="#FFFFFF">
            <g id="second" transform="translate(-675.000000, 902.000000)">
                <g id="2.3" transform="translate(0.000000, 1784.000000)">
                    <g id="Group-11" transform="translate(0.000000, 90.000000)">
                        <g id="Group-5" transform="translate(0.000000, 13.000000)">
                            <g id="callout-arrow" transform="translate(1078.964850, 118.465699) rotate(-15.000000) translate(-1078.964850, -118.465699) translate(977.964850, 88.465699)">
                                <path d="M3.46225009,20.9038283 C-1.64024215,27.813173 -1.30330963,36.5982086 5.81384854,41.8973393 C12.68502,47.0134124 22.7791372,47.9876959 30.9287467,47.5495719 C39.4984392,47.0880236 48.1867943,45.5931967 56.2082135,42.4933614 C63.189386,39.795212 71.1960807,34.792791 74.4640663,27.6092935 C76.7281836,22.6363699 74.5117046,17.244409 71.3563185,13.0132596 C63.1945829,2.06536651 47.5943473,-1.74761311 34.7709901,0.721497243 C26.0081461,2.40892509 18.494291,6.71815599 13.3684127,13.9675889 C12.8851007,14.6521034 14.0084979,15.297577 14.4848806,14.6217383 C24.4915166,0.469901317 42.7672909,-1.84044333 58.2800453,4.43730879 C64.2192389,6.84048366 69.2879513,10.9232782 72.1791615,16.8166959 C75.1119469,22.7960032 73.379646,29.6532935 68.7552688,33.855813 C61.9923661,39.999959 52.4543175,42.98701 43.6568274,44.6701 C34.4756328,46.4269336 24.6075808,47.2893003 15.3917401,45.3442035 C11.2463441,44.4688232 7.15811402,41.9181611 4.22879323,38.7645363 C0.707025543,34.9741135 0.378754526,29.5890932 2.45751558,25.0074446 C6.51802885,16.0636433 17.8022368,10.2075312 26.8595719,7.85207279 C27.0007545,7.81823748 27.1428031,7.78440217 27.2839857,7.74883171 C28.0929702,7.55189283 27.7499746,6.30172135 26.9392578,6.4995278 C18.2933441,8.60946329 8.83151668,13.6318385 3.46225009,20.9038283 Z" id="Fill-3" stroke="#FFFFFF" stroke-width="2"></path>
                                <path d="M198.593881,51.0800865 C200.721502,51.5630869 199.652194,54.7769437 197.534614,54.2921823 C156.658733,44.9510565 115.477079,36.964598 74.105468,30.111196 C72.9863546,29.9265009 73.0353513,28.1664182 74.1906917,28.3247099 C115.980322,34.0561539 157.471383,41.7332238 198.593881,51.0800865 Z" id="Fill-61"></path>
                                <path d="M183.239174,57.4861974 C185.855054,56.8935528 188.477535,56.3049673 191.093003,55.7129723 C193.571509,55.1487589 197.086359,54.9616841 199.28881,53.7336413 C199.013271,54.153123 198.738145,54.5719551 198.463431,54.9901376 C198.176305,50.7155432 194.107766,45.9926117 191.86774,42.5530504 C190.933193,41.1193858 193.21401,39.7101073 194.319741,40.9175453 C197.523473,44.4149911 201.273641,50.3042449 201.483674,55.1338993 C201.507651,55.6598818 201.100519,56.1565115 200.657882,56.3910452 C198.441399,57.5544576 195.533387,57.609777 193.088693,58.0051006 C189.956714,58.5143239 186.824322,59.0241968 183.685329,59.5300106 C182.342934,59.7504994 181.899675,57.7888559 183.239174,57.4861974" id="Fill-62"></path>
                            </g>
                        </g>
                    </g>
                </g>
            </g>
        </g>
    </g>
</svg>