<?xml version="1.0" encoding="UTF-8"?>
<svg width="92px" height="92px" viewBox="0 0 92 92" version="1.1" xmlns="http://www.w3.org/2000/svg" xmlns:xlink="http://www.w3.org/1999/xlink">
    <!-- Generator: Sketch 54.1 (76490) - https://sketchapp.com -->
    <title>curve-arrow</title>
    <desc>Created with Sketch.</desc>
    <g id="Page-1" stroke="none" stroke-width="1" fill="none" fill-rule="evenodd">
        <g id="home" transform="translate(-408.000000, -1480.000000)" fill="#FFFFFF" fill-rule="nonzero">
            <g id="second" transform="translate(-675.000000, 902.000000)">
                <g id="2.1" transform="translate(886.000000, 63.000000)">
                    <path d="M288.927971,598.712319 C287.165345,593.196082 284.453612,587.955217 282.148417,582.714578 C281.877244,582.02502 280.792551,582.02502 280.385791,582.438755 C278.081039,584.921163 275.504893,587.403571 274.013218,590.437626 L273.877631,590.437626 C257.33606,591.67883 241.336835,577.335802 229.947556,566.854748 C216.795651,554.856442 204.864026,540.237816 200.118493,522.723048 C199.84732,520.516463 199.576146,518.171966 199.576146,515.827469 C199.576146,514.724177 198.084693,514.724177 197.949107,515.827469 C197.949107,516.241204 197.949107,516.654939 197.949107,517.068673 C197.40676,517.068673 197,517.482408 197,518.171966 C197.135587,519.688993 197.542347,521.20602 197.81352,522.723048 C198.898213,560.097081 235.506609,596.092 271.301485,598.436496 C270.081205,600.643081 268.996733,602.987353 267.640867,605.194163 C266.962712,606.159319 268.047627,607.124699 268.996733,606.986788 C275.776066,606.021632 281.877465,602.711529 288.114451,600.229347 C288.656576,600.091435 289.198923,599.539789 288.927971,598.712319 Z M270.624771,604 C271.441389,602.208774 271.985431,600.417549 272.937892,598.626323 C273.210246,597.937165 272.801826,597.386244 272.393629,597.248457 C272.393629,596.835098 272.121497,596.559299 271.713299,596.421738 C239.19354,590.910274 212.796748,568.451061 203,538 C209.395099,549.987433 219.191847,560.459214 228.852528,569.277555 C235.927957,575.75375 243.411584,581.540561 251.57554,586.363092 C257.970639,590.08333 265.998529,593.527994 273.34609,591.185847 L273.34609,591.185847 C272.937892,592.28814 274.570684,592.839287 275.114947,592.012567 C276.883804,589.670195 278.652662,587.46561 280.557585,585.398811 C282.462286,589.670195 284.503497,593.941354 286,598.350525 C280.965783,600.279762 275.931343,602.759921 270.624771,604 Z" id="curve-arrow"></path>
                </g>
            </g>
        </g>
    </g>
</svg>