<?xml version="1.0" encoding="UTF-8"?>
<svg width="272px" height="71px" viewBox="0 0 272 71" version="1.1" xmlns="http://www.w3.org/2000/svg" xmlns:xlink="http://www.w3.org/1999/xlink">
    <!-- Generator: Sketch 58 (84663) - https://sketch.com -->
    <title>logomark-solid</title>
    <desc>Created with Sketch.</desc>
    <g id="Page-1" stroke="none" stroke-width="1" fill="none" fill-rule="evenodd">
        <g id="Artboard" transform="translate(-1582.000000, -907.000000)">
            <g id="orbit-logo2" transform="translate(1580.000000, 900.000000)">
                <g id="Group-2" transform="translate(45.000000, 25.000000)" fill="#000000">
                    <polygon id="BIT" points="190.850646 0.193965517 157.271825 0.193965517 157.271825 11.4407711 168.15385 11.4407711 168.15385 44.3388958 179.968621 44.3388958 179.968621 11.4407711 190.850646 11.4407711"></polygon>
                    <polygon id="Path" points="150.517151 0.193965517 137.565476 0.193965517 137.565476 44.3388958 150.517151 44.3388958"></polygon>
                    <path d="M116.193739,0.193965517 L116.452799,0.197665663 C123.012181,0.360160497 128.280754,5.85413759 128.280754,12.6077586 C128.280754,16.0363349 126.922918,19.1402711 124.727686,21.3868192 L124.945529,21.5259452 C128.318202,23.7297484 130.554563,27.5936617 130.554563,31.9920527 C130.554563,38.1820902 126.125204,43.3135363 120.332758,44.248809 L120.281711,44.4181034 L96.0961656,44.4181034 L96.070075,2.38404544 C96.1103865,1.30057976 96.8972856,0.41083764 97.9340965,0.217655745 L98.0914304,0.193965517 L116.193739,0.193965517 Z M114.619563,34.3571724 L114.52962,34.3596059 L114.619851,34.3596059 L114.619563,34.3571724 Z M114.619851,27.1551724 L106.679563,27.1551724 L106.679563,34.3596059 L114.52962,34.3596059 C116.473105,34.3596059 118.048611,32.7468385 118.048611,30.7573892 C118.048611,28.7989926 116.521905,27.2056107 114.619851,27.1551724 Z M114.430079,17.6671724 L114.34245,17.669335 L114.34245,17.669335 L114.430367,17.669335 L114.430079,17.6671724 Z M114.430367,10.2801724 L106.490079,10.2801724 L106.490079,17.669335 L114.34245,17.669335 C116.284657,17.669335 117.859127,16.0152146 117.859127,13.9747537 C117.859127,11.9652675 116.332096,10.3304814 114.430367,10.2801724 L114.430367,10.2801724 Z" id="Path"></path>
                    <path d="M72.5521262,0.193965517 L72.5556386,0.217910019 C80.2770316,0.661447226 86.4047619,7.21134174 86.4047619,15.2262931 C86.4047619,21.0768919 83.4237834,26.1468462 78.8249019,28.6309033 L90.4472937,44.4179655 L77.3982937,44.4179655 L67.0022937,30.2949655 L61.7993268,30.2951566 L61.7993268,44.4141344 L50.2132937,44.4141344 L50.2142186,34.6763228 C50.2159362,24.1334009 50.2208439,8.0165679 50.2348657,1.98504801 C50.2348657,1.05634602 51.0159085,0.293879508 52.0141571,0.202708647 L52.1734982,0.193965517 L72.5521262,0.193965517 Z M70.8670635,10.862069 L61.9613095,10.862069 L61.9613095,19.5905172 L70.8670635,19.5905172 C70.8983211,19.5901612 70.9300227,19.5905172 70.9618056,19.5905172 C73.3164124,19.5905172 75.2251984,17.6365875 75.2251984,15.2262931 L75.2251984,15.2262931 L75.220282,15.0148425 C75.1125312,12.7027519 73.2471593,10.862069 70.9618056,10.862069 L70.9618056,10.862069 L70.8663095,10.864069 L70.8670635,10.862069 Z" id="Shape-Copy-21" fill-rule="nonzero"></path>
                    <path d="M0,22.4439317 C0,34.8388463 9.90860385,44.8878635 22.1303263,44.8878635 C34.3520498,44.8878635 44.2606525,34.8388463 44.2606525,22.4439317 C44.2606525,10.0490172 34.3530905,3.55271368e-15 22.1303263,3.55271368e-15 C9.90860385,3.55271368e-15 0,10.0490172 0,22.4439317 Z M11.6388384,22.3226132 C11.6388384,16.4305086 16.3893224,11.6545098 22.2499507,11.6545098 C28.1105769,11.6545098 32.8610606,16.4305086 32.8610606,22.3226132 C32.8610606,28.2147178 28.1096834,32.9907167 22.2499507,32.9907167 C16.3893224,32.9907167 11.6388384,28.2147178 11.6388384,22.3226132 Z" id="Shape-Copy-22" fill-rule="nonzero"></path>
                </g>
                <g id="Group" transform="translate(4.000000, 11.000000)" fill-rule="nonzero">
                    <path d="M8.60100521,9.75344302 C16.7428931,6.42045913 21.7937924,5.77869208 30.3160445,3.90819911 C37.7534362,2.275815 39.5733753,12.2482868 33.5162146,16.7769298 C25.6071559,22.6901462 23.5363176,17.4440557 19.4007526,33.201838 C17.5031177,40.4324148 5.00725224,39.4038773 4.3578649,33.2105986 C3.48875329,24.9217856 3.69182382,26.3154829 3.79402557,20.0141924 C3.87733129,14.8779439 4.899317,11.2687754 8.60100521,9.75344302 Z" id="notch-copy-3" fill="#8C60F9" transform="translate(20.423943, 20.988473) rotate(-14.000000) translate(-20.423943, -20.988473) "></path>
                    <path d="M6.94637002,9.96413144 C15.0667307,6.63996003 20.1042752,5.99988983 28.6039947,4.13434246 C36.0217219,2.50627439 38.0246607,12.5066887 31.9835151,17.023358 C27.1225847,20.6576379 16.8981486,24.7653586 9.7806775,24.8679826 C5.3481664,24.9318933 2.11298202,22.60959 2.15210006,20.1977515 C2.23518551,15.0750832 3.25446909,11.4754574 6.94637002,9.96413144 Z" id="notch-copy-4" fill="#FF5959" transform="translate(18.845915, 14.413141) rotate(-14.000000) translate(-18.845915, -14.413141) "></path>
                    <path d="M6.22342509,9.41230359 C14.3653131,6.07931969 19.4162121,5.43755265 27.9384645,3.56705968 C35.3758562,1.93467558 37.3841048,11.9616012 31.3269439,16.4902442 C23.4178852,22.4034606 2.52173689,10.927636 6.22342509,9.41230359 Z" id="notch-copy-5" fill="#F4CA5F" transform="translate(20.340495, 10.779855) rotate(-14.000000) translate(-20.340495, -10.779855) "></path>
                </g>
            </g>
        </g>
    </g>
</svg>