<?xml version="1.0" encoding="UTF-8"?>
<svg width="334px" height="300px" viewBox="0 0 334 300" version="1.1"
  xmlns="http://www.w3.org/2000/svg"
  xmlns:xlink="http://www.w3.org/1999/xlink">
  <!-- Generator: Sketch 54.1 (76490) - https://sketchapp.com -->
  <title>people</title>
  <desc>Created with Sketch.</desc>
  <g id="Page-1" stroke="none" stroke-width="1" fill="none" fill-rule="evenodd">
    <g id="home" transform="translate(-869.000000, -6225.000000)">
      <g id="bottom" transform="translate(-266.000000, 5143.000000)">
        <g id="security" transform="translate(444.000000, 801.000000)">
          <g id="people" transform="translate(655.000000, 260.000000)">
            <g transform="translate(207.500000, 49.000000)"></g>
            <g id="Head/Front/Chongo" transform="translate(55.500000, 52.000000)">
              <g id="Head" stroke-width="1" transform="translate(40.102941, 22.951923)" fill="#DDB691">
                <path d="M6.1359534,25.5359592 C2.71390294,21.5314033 0.397787604,16.6237648 0.784811836,11.1246149 C1.89993641,-4.71996716 24.0235411,-1.23436098 28.3270403,6.76262341 C32.6305394,14.7596078 32.1191719,35.0446219 26.5572827,36.4739061 C24.3392089,37.0439026 19.6140523,35.6476393 14.8049454,32.7578035 L17.8235294,54.0480769 L0,54.0480769 L6.1359534,25.5359592 Z"></path>
              </g>
              <path d="M61.3898015,21.004694 C58.9543338,20.2643094 55.4188905,20.0132213 53.9316346,20.1830803 C54.7776535,18.1622595 55.1133663,15.9108219 54.8396793,13.7186501 C54.5736675,11.5885489 53.618947,9.77482958 52.7359741,7.87427086 C52.3289685,6.99823768 51.8677259,6.12697917 51.1800406,5.45691345 C50.4795067,4.77425453 49.5927246,4.32364474 48.6628486,4.10866507 C47.7112549,3.88861232 46.7162262,3.90693512 45.7631544,4.10663584 C45.3415378,4.19496729 44.9632427,4.38714789 44.5497559,4.49398121 C44.1263201,4.60344059 43.9209128,4.33922211 43.6135693,4.07369059 C42.8728976,3.43388437 41.7870758,3.11803973 40.8500363,3.00499934 C39.7987238,2.87823176 38.707842,3.03633313 37.705195,3.38088549 C36.7292686,3.71630629 35.7917175,4.26097715 35.0861237,5.05446817 C34.771958,5.40767463 34.4867869,5.80970212 34.3014484,6.25356769 C34.2254369,6.43572148 34.2128726,6.5436291 34.0305473,6.61035516 C33.8619234,6.67212749 33.6647028,6.67391799 33.4906779,6.73270616 C31.8079638,7.30089228 30.3692598,8.59709672 29.5858921,10.2613688 C29.1288565,11.2322986 28.912363,12.9417629 28.9716599,14.8577914 C29.0309569,16.77382 30.7663162,21.7732852 32.3893922,23.5968523 C33.8381591,25.2245384 35.9676753,26.2986609 38.0228288,26.7688468 C36.6587149,28.3233014 35.7506701,30.2657579 35.0791878,32.241279 C34.3498297,34.3871962 33.8984225,36.616909 33.7317316,38.8887582 C33.573398,41.0472687 33.5587301,43.3299206 34.0663073,45.4423554 C34.5411377,47.4178168 35.5565764,49.0384006 37.2517412,50.0665072 C38.0282297,50.537469 38.8636741,50.8912723 39.703951,51.2146371 C40.5320615,51.5332868 41.3626734,51.8431034 42.2301257,52.021915 C43.8718492,52.3602006 45.7634955,52.3021286 47.0281178,50.999359 C47.4839026,50.5297102 47.9851693,49.9395606 48.3176983,49.3658239 C48.4372587,49.1594983 48.5093474,49.0245541 48.3640898,48.8228838 C48.1900649,48.581345 47.9085892,48.3962668 47.685046,48.2073091 C46.4102471,47.1299637 45.6211374,45.6917128 45.4222112,43.9824991 C45.2203856,42.248278 45.6876545,40.0098515 47.3788965,39.2530061 C49.4665694,38.3187219 51.765676,39.3911135 53.6212211,40.3907511 C54.4098192,37.6159497 56.0290293,35.1175422 58.5676546,33.8447336 C61.3762146,32.4366228 64.5990003,32.2718369 67.4852205,31.0636655 C68.2373195,30.7488355 69.0033472,30.3914512 69.5570885,29.7499738 C69.7884774,29.4818759 70.059947,29.1341006 70.152332,28.7795215 C70.2737117,28.3137521 69.9723945,27.9232435 69.7396412,27.5601296 C68.5054917,25.6348022 63.8252691,21.7450786 61.3898015,21.004694 Z" id="hair" fill="#191847"></path>
            </g>
            <g id="Bottom/Sitting/Sweat-Pants" transform="translate(0.500000, 191.000000)">
              <g id="Objects/Seat/Ball" transform="translate(7.433333, 31.280335)" fill="#C5CFD6" opacity="0.682221912">
                <ellipse id="Ballsy-Ball" cx="86" cy="43.4032258" rx="57.0862069" ry="54.5322581"></ellipse>
              </g>
              <path d="M201.821878,121.144155 C192.297708,100.023745 185.409924,81.6329458 182.645194,71.9299165 C177.911303,55.3159747 174.310044,40.6966761 173.39984,35.2371307 C171.229342,22.2181445 190.096554,21.4600229 192.590404,27.9302322 C196.364944,37.723151 202.954436,69.8985954 210.872214,118.498407 L201.821878,121.144155 Z M91.3470041,54.8623865 C100.08542,51.4016535 130.686887,40.5712497 145.445974,37.5075266 C149.687144,36.6271355 153.79781,35.8091529 157.662557,35.0699239 C169.149954,32.872674 175.101503,53.636411 164.037739,55.231803 C136.484595,59.2049594 97.4233602,63.3078892 94.0805721,63.7683318 C89.3955118,64.4136617 85.8551823,57.0373493 91.3470041,54.8623865 Z" id="Skin" fill="#DDB691"></path>
              <path d="M164.713093,29.3560411 L117.446667,5.24818284 L117.446667,0 L123.067891,0 C168.796041,11.6748056 192.163089,19.1567246 193.169034,22.445757 C193.179856,22.4811431 193.189779,22.5165756 193.198803,22.5520545 C193.221816,22.582318 193.244438,22.6127644 193.266667,22.6433936 C202.32902,35.1308141 207.756426,96.095397 209.537799,100.660218 L192.172279,103.255921 C185.529507,78.575676 164.276667,61.3825185 164.841219,31.8232798 C164.688778,30.9561927 164.650259,30.133908 164.713093,29.3560411 Z" id="Leg-Back" fill="#1F28CF"></path>
              <path d="M121.373826,43.6736601 C117.049057,42.8062626 113.06641,42.0321237 109.658544,41.4332307 C87.6459053,37.5647649 81.2268326,25.7587974 85.0221311,2.28644225e-14 L125.580044,-4.97379915e-14 C132.205248,1.90684777 166.636034,16.3736448 184.500256,24.0682343 C196.323713,29.1609078 192.596574,47.5196548 185.900945,52.2973547 C185.864586,52.5904574 185.744086,52.7895536 185.529507,52.8786611 C149.511738,67.8356158 121.018377,59.9877398 111.5,62.4952544 L107.097326,48.5801595 L121.373826,43.6736601 Z" id="Leg-Front" fill="#2B44FF"></path>
              <g id="Accessories/Shoe/Flat-Sneaker" transform="translate(107.009742, 69.510728) rotate(64.000000) translate(-107.009742, -69.510728) translate(84.338076, 54.615331)" fill="#E4E4E4">
                <path d="M1.7759936,19.605184 C1.08380115,21.56951 0.737704918,23.0608664 0.737704918,24.0792531 C0.737704918,25.4317178 0.959321954,27.4053001 1.40255603,30 C2.94578939,30 16.8150875,30 43.0104503,30 C44.0916919,26.3658804 43.4675365,24.4039362 41.1379841,24.1141674 C38.8084316,23.8243985 36.8732328,23.5627604 35.3323876,23.3292531 L16.2485768,14.6798008 C15.7455473,14.4518102 15.1529383,14.6747733 14.9249477,15.1778028 C14.9194,15.1900431 14.9140996,15.2023939 14.9090497,15.2148478 L13.7679441,18.0290213 C11.6113878,19.0519891 9.85896189,19.563473 8.51066641,19.563473 C7.51135176,19.563473 6.16470623,19.1891672 4.47072985,18.4405555 L4.47072858,18.4405584 C3.46041961,17.9940769 2.2794576,18.4511494 1.8329761,19.4614583 C1.81213656,19.5086145 1.7931282,19.5565589 1.7759936,19.605184 Z" id="shoe"></path>
              </g>
              <g id="Accessories/Shoe/Flat-Sneaker" transform="translate(195.496667, 98.309623)" fill="#E4E4E4">
                <path d="M1.7759936,19.605184 C1.08380115,21.56951 0.737704918,23.0608664 0.737704918,24.0792531 C0.737704918,25.4317178 0.959321954,27.4053001 1.40255603,30 C2.94578939,30 16.8150875,30 43.0104503,30 C44.0916919,26.3658804 43.4675365,24.4039362 41.1379841,24.1141674 C38.8084316,23.8243985 36.8732328,23.5627604 35.3323876,23.3292531 L16.2485768,14.6798008 C15.7455473,14.4518102 15.1529383,14.6747733 14.9249477,15.1778028 C14.9194,15.1900431 14.9140996,15.2023939 14.9090497,15.2148478 L13.7679441,18.0290213 C11.6113878,19.0519891 9.85896189,19.563473 8.51066641,19.563473 C7.51135176,19.563473 6.16470623,19.1891672 4.47072985,18.4405555 L4.47072858,18.4405584 C3.46041961,17.9940769 2.2794576,18.4511494 1.8329761,19.4614583 C1.81213656,19.5086145 1.7931282,19.5565589 1.7759936,19.605184 Z" id="shoe"></path>
              </g>
            </g>
            <g id="Body/Jacket" transform="translate(15.500000, 112.000000)">
              <path d="M144.017335,66.2461449 L165.041952,86.7876861 C171.15934,89.4010428 176.171668,92.2867164 180.078937,95.4447067 C180.957623,96.5062148 181.914216,98.540119 177.780041,97.629976 C173.645867,96.719833 169.256465,95.9487109 168.479454,97.2952182 C167.702444,98.6417256 169.991969,100.705053 168.555957,102.467285 C167.598616,103.642106 164.379002,99.9052301 158.897116,91.2566572 L137.034295,78.3472881 L144.017335,66.2461449 Z M50.6972904,69.1431279 L66.2070733,69.2042133 C56.630498,100.166031 51.4605703,116.594177 50.6972904,118.488652 C48.9799104,122.751222 52.6141173,129.243041 54.1682484,132.731697 C49.1064952,135.000123 49.6458304,126.599215 43.2605648,129.574382 C37.4323905,132.289977 32.9989128,137.210453 26.2652996,133.049292 C25.4374414,132.537702 24.5302437,130.611472 26.722148,129.106226 C32.182981,125.356107 40.0523722,118.792724 41.1156509,116.632336 C42.5656214,113.686261 45.7595012,97.8565247 50.6972904,69.1431279 Z" id="Skin" fill="#DDB691"></path>
              <path d="M90.5544639,6.85803418 L96.8517431,5.20042053 C110.268385,31.7762878 131.67517,55.1175364 161.072097,75.2241664 L142.552525,102.255741 C112.32419,72.609196 92.5269583,41.02558 90.5544639,6.85803418 Z" id="Coat-Back" fill="#191847" transform="translate(125.813281, 53.728081) rotate(5.000000) translate(-125.813281, -53.728081) "></path>
              <path d="M66.796875,84.7379679 L123.945312,84.7379679 C110.705333,52.4967669 104.085343,25.1082491 104.085343,2.5724145 L86.8464825,0 C73.298358,21.8225591 69.472332,48.6905478 66.796875,84.7379679 Z" id="Shirt" fill="#DDE3E9"></path>
              <path d="M86.4814946,0.0122051417 C86.4837579,0.00813605378 86.4860211,0.00406767316 86.488284,-2.38303504e-14 L87.613566,-4.26339201e-14 C88.9600633,0.0464372506 91.0109516,0.130103178 93.7662308,0.250997782 L97.931758,12.1731889 C98.3723785,26.7091272 100.945535,56.0029649 105.651227,100.054702 L68.1892793,100.054702 C68.2874855,103.097174 68.4494118,106.168066 68.6750582,109.26738 L40.8203125,109.26738 C44.9868911,62.1887214 60.2027152,25.7662615 86.4677848,1.42108547e-14 L86.4814946,0.012205137 Z" id="Coat-Front" fill="#2F3676"></path>
              <path d="M70.6638427,61.1251394 C71.7300048,80.0906792 74.3993489,93.1648306 78.671875,100.347594 L68.1989273,100.347594 C67.7404254,86.7024427 68.562064,73.6283065 70.6638418,61.1251446 Z" id="Shade" fill-opacity="0.1" fill="#000000"></path>
              <polygon id="Light" fill-opacity="0.2" fill="#FFFFFF" points="76.5276203 77.3048128 95 68.7041111 95 77.3048128"></polygon>
            </g>
            <g id="Head/Front/Short-Beard" transform="translate(306.000000, 38.500000) scale(-1, 1) translate(-306.000000, -38.500000) translate(255.500000, 0.000000)">
              <g id="Head" stroke-width="1" transform="translate(40.102941, 22.951923)" fill="#FEE0CD">
                <path d="M6.1359534,25.5359592 C2.71390294,21.5314033 0.397787604,16.6237648 0.784811836,11.1246149 C1.89993641,-4.71996716 24.0235411,-1.23436098 28.3270403,6.76262341 C32.6305394,14.7596078 32.1191719,35.0446219 26.5572827,36.4739061 C24.3392089,37.0439026 19.6140523,35.6476393 14.8049454,32.7578035 L17.8235294,54.0480769 L0,54.0480769 L6.1359534,25.5359592 Z"></path>
              </g>
              <path d="M55.7990136,35.8264186 C56.4812715,45.3012512 58.2860242,50.0386674 61.2132716,50.0386674 C65.6043999,50.0386674 69.3299603,47.2595232 71.2566819,47.2595232 C72.6611966,47.2595232 72.3476116,49.0117887 71.4166258,50.310969 C70.6485326,51.3828345 66.9079828,52.4159848 66.9079828,54.0777363 C66.9079828,55.7394879 69.8633273,54.4538823 69.8633273,55.4394347 C69.8633273,57.0696586 70.3827247,60.134771 67.5446591,60.134771 C64.672442,60.134771 56.4372868,59.0912687 55.0260043,54.8413784 C54.1152038,52.0986235 53.5263059,46.4151223 53.2593104,37.7908747 C53.0850725,37.7702334 52.9077506,37.7596154 52.7279412,37.7596154 C50.2670253,37.7596154 48.2720588,39.7485043 48.2720588,42.2019231 C48.2720588,43.4474116 48.7861873,44.5731848 49.6144045,45.3798123 C48.5833738,46.8306716 47.4278841,48.3462885 46.1038163,49.9102081 C41.1295805,46.9349607 37.4384146,38.2252961 42.3015375,29.8584369 C43.64572,25.7596426 46.688761,23.5703225 50.2826657,22.553751 C53.1939137,21.3396766 56.2160647,21.2027886 58.7671904,21.9306153 C63.7681035,22.3582558 68.2336789,23.8785242 69.4992589,24.7813742 C69.4992589,29.5014921 68.5818742,30.9019373 60.7461571,30.7784933 C58.8207944,31.7922162 57.3406727,33.5378458 55.7990136,35.8264186 Z" id="Hair" fill="#784931"></path>
            </g>
            <g id="Bottom/Standing/Skinny-Jeans" transform="translate(312.000000, 229.000000) scale(-1, 1) translate(-312.000000, -229.000000) translate(200.500000, 140.000000)">
              <polygon id="Leg" fill="#AFB9C5" points="95.1466667 9.9475983e-14 122.096189 94.7547692 141.758838 164.594142 156.1 164.594142 135.205624 9.9475983e-14"></polygon>
              <path d="M87.939561,0 C87.3162211,48.8377069 85.1906439,75.4751193 84.5361626,79.9122373 C83.8816813,84.3493553 73.9855811,112.576657 54.8478619,164.594142 L69.7043341,164.594142 C94.0681147,114.692253 107.6686,86.4649515 110.505791,79.9122373 C113.342982,73.3595231 122.098829,46.7221107 135.286667,0 L87.939561,0 Z" id="Leg" fill="#C5CFD6"></path>
              <g id="Accessories/Shoe/Flat-Simple" transform="translate(53.520000, 148.209205)" fill="#191847">
                <path d="M0,27.75 L0.732115085,15.75 C5.01854599,17.0245688 10.3873899,16.5245688 16.8386469,14.25 C23.6548723,19.1587291 32.2049736,22.5375775 42.4889511,24.3865452 L42.4889538,24.3865299 C43.5761007,24.5819892 44.2989563,25.621747 44.1034969,26.7088939 C44.0923941,26.7706483 44.0783913,26.8318459 44.0615351,26.8922839 L43.19479,30 L16.8386469,30 L1.46423017,30 L0,27.75 Z" id="Shoe"></path>
              </g>
              <g id="Accessories/Shoe/Flat-Simple" transform="translate(139.746667, 148.209205)" fill="#191847">
                <path d="M0,27.75 L0.732115085,15.75 C5.01854599,17.0245688 10.3873899,16.5245688 16.8386469,14.25 C23.6548723,19.1587291 32.2049736,22.5375775 42.4889511,24.3865452 L42.4889538,24.3865299 C43.5761007,24.5819892 44.2989563,25.621747 44.1034969,26.7088939 C44.0923941,26.7706483 44.0783913,26.8318459 44.0615351,26.8922839 L43.19479,30 L16.8386469,30 L1.46423017,30 L0,27.75 Z" id="Shoe"></path>
              </g>
            </g>
            <g id="Body/Pointing-Forward" transform="translate(311.443866, 131.074975) scale(-1, 1) rotate(8.000000) translate(-311.443866, -131.074975) translate(216.225359, 61.639491)">
              <path d="M117.73917,31.7397451 L143.500336,17.6090119 C147.78426,12.5141048 152.005119,8.55719549 156.162912,5.73828414 C157.433399,5.20707018 159.655161,4.88554154 157.577392,8.57898114 C155.499623,12.2724207 153.479977,16.2509519 154.538519,17.3888207 C155.59706,18.5266895 158.236628,16.9371369 159.499452,18.8277156 C160.341335,20.0881014 155.831841,22.0791562 145.970973,24.8008798 L127.252346,41.965841 L117.73917,31.7397451 Z M158.085938,43.6622338 L169.401716,37.4364957 C170.98948,31.3856876 172.887458,28.3413215 175.095651,28.3033973 C176.792002,27.5129024 173.837819,35.1586636 177.053564,34.4956245 C180.269309,33.8325855 188.118025,27.9863408 189.470398,29.1733494 C191.471146,30.9294521 189.687156,36.3217049 187.585192,39.004062 C183.656623,44.017384 180.403938,45.7317888 172.364421,47.9768123 C168.160946,49.1506264 163.616247,51.5034359 158.730323,55.0352406 L158.085938,43.6622338 Z" id="Skin" fill="#FEE0CD"></path>
              <path d="M106.028167,25.8347475 C114.955229,27.1519974 127.138164,27.1491367 141.095658,21.0961156 L144.313991,33.0074082 C134.190217,40.3157466 120.760031,45.5107363 110.054034,43.5050206 C101.617119,41.924406 98.9118944,30.9719747 106.028167,25.8347475 Z" id="Sleeve" fill="#69A1AC" transform="translate(123.127258, 32.517508) rotate(-9.000000) translate(-123.127258, -32.517508) "></path>
              <path d="M117.343011,46.6513987 C126.922269,49.0440351 142.986093,46.2224557 165.534482,38.1866604 C171.127414,49.775022 173.712886,58.0366351 173.290899,62.9714997 C153.947703,73.0909938 137.368914,77.6027592 123.710207,77.9006045 C124.144263,86.0174889 123.157791,93.7408916 119.843935,100.798018 C113.031208,115.306272 80.5607851,101.870011 67.147772,104.514595 C58.7481489,77.1942968 71.2781369,66.091438 71.2912046,48.6103186 C71.3055151,29.4666302 79.2317887,-2.4158453e-13 81.4899614,-2.4158453e-13 L105.794189,-5.03478128e-14 C106.930442,14.620287 112.649516,30.7331101 117.343011,46.6513987 Z" id="Clothes" fill="#89C5CC"></path>
            </g>
          </g>
        </g>
      </g>
    </g>
  </g>
</svg>
