<?xml version="1.0" encoding="UTF-8"?>
<svg width="723px" height="898px" viewBox="0 0 723 898" version="1.1" xmlns="http://www.w3.org/2000/svg" xmlns:xlink="http://www.w3.org/1999/xlink">
    <!-- Generator: Sketch 61.2 (89653) - https://sketch.com -->
    <title>d</title>
    <desc>Created with Sketch.</desc>
    <g id="base" stroke="none" stroke-width="1" fill="none" fill-rule="evenodd">
        <g id="favicon" transform="translate(-342.000000, -229.000000)" fill="#FFFFFF">
            <g id="d" transform="translate(342.000000, 229.000000)">
                <path d="M518.627813,0 C541.817561,0 564.367998,2.7384713 585.97366,7.90980987 L585.979804,583.732957 C586.478747,590.721128 586.732492,597.777052 586.732492,604.89219 L586.713755,606.814349 C596.081684,675.935556 651.928991,730.274872 721.714858,737.260044 C723.810659,759.324402 723.377996,781.987769 720.160555,804.901897 C716.677249,829.709474 710.137306,853.334016 700.975041,875.448098 C632.176936,867.0004 570.789332,834.673072 525.386553,787.029065 L524.212765,785.788017 C470.503692,854.111691 387.06482,898 293.366246,898 C131.344542,898 0,766.771164 0,604.89219 C0,443.013217 131.344542,311.78438 293.366246,311.78438 C348.860041,311.78438 400.755037,327.179098 445.006383,353.927248 L445.000203,9.48871563 C468.503836,3.29750809 493.180914,0 518.627813,0 Z M293.366246,449.397418 C209.231582,449.397418 141.026961,517.682387 141.026961,601.916165 C141.026961,686.149943 209.231582,754.434912 293.366246,754.434912 C376.206401,754.434912 443.602947,688.235063 445.657282,605.792747 C445.271574,600.087474 445.056946,594.338092 445.011466,588.548504 L445.008306,587.73462 L445.055584,587.733277 C437.909785,510.14896 372.724309,449.397418 293.366246,449.397418 Z" id="Oval-2"></path>
            </g>
        </g>
    </g>
</svg>