<svg class="home_section__logo" version="1.1" id="Layer_1"
  xmlns="http://www.w3.org/2000/svg"
  xmlns:xlink="http://www.w3.org/1999/xlink" x="0px" y="0px" viewBox="0 0 60 50" style="enable-background:new 0 0 60 50;" xml:space="preserve">
  <g>
    <path style="fill:#0C6BED;" d="M36.041,19.534c-1.624,0.282-2.596,2.183-2.212,4.327c0.383,2.144,1.956,3.602,3.58,3.32
        						c1.624-0.282,2.596-2.183,2.212-4.327C39.237,20.71,37.665,19.251,36.041,19.534z M37.09,25.402
        						c-0.505,0.088-1.252-0.704-1.458-1.855c-0.206-1.152,0.221-2.147,0.726-2.235c0.505-0.088,1.252,0.704,1.458,1.855
        						S37.595,25.315,37.09,25.402z"></path>
    <path style="fill:#0C6BED;" d="M40.534,15.702c-1.66-1.705-3.634-2.46-5.558-2.126c-1.934,0.336-7.056,2.332-11.315,4.658
        						c-3.439,1.879-5.821,3.66-7.139,5.33c-0.113,0.143-0.279,0.237-0.46,0.268l-2.405,0.418c-0.426,0.074-0.858-0.073-1.101-0.374l0,0
        						c-0.792-0.984-2.097-1.392-3.324-1.038c-1.404,0.405-2.32,1.693-2.226,3.133c0.048,0.737,0.36,1.432,0.879,1.956
        						c0.223,0.225,0.291,0.566,0.158,0.852c-0.434,0.939-0.365,2.059,0.232,2.969c0.594,0.905,1.657,1.424,2.749,1.37
        						c0.133-0.007,0.264-0.021,0.392-0.044c1.122-0.195,2.05-0.973,2.415-2.055c0.123-0.365,0.478-0.648,0.905-0.723l2.358-0.41
        						c0.192-0.033,0.376,0.089,0.42,0.277c0.84,3.628,2.332,6.933,4.393,9.692c0.122,0.163,0.359,0.193,0.521,0.068l3.168-2.441
        						c0,0,0-0.001-0.001-0.001l0.405-0.312c0.723-0.557,0.475-1.691-0.416-1.906l-1.355-0.327c-0.206-0.05-0.381-0.183-0.478-0.369
        						c-0.345-0.666-0.658-1.359-0.938-2.076c-0.105-0.269,0.136-0.544,0.421-0.479c0.918,0.209,1.914,0.397,2.991,0.565
        						c4.809,0.75,10.315,0.898,12.249,0.562c1.924-0.335,3.518-1.71,4.486-3.872c0.914-2.04,1.165-4.567,0.71-7.117
        						C43.213,19.6,42.1,17.31,40.534,15.702z M15.142,28.393l-0.722,0.126c-1.096,0.191-1.987,0.93-2.325,1.93
        						c-0.166,0.492-0.614,0.831-1.144,0.865c-0.608,0.039-1.131-0.322-1.302-0.899c-0.112-0.377-0.03-0.687,0.058-0.881
        						c0.446-0.977,0.244-2.104-0.513-2.871c-0.15-0.152-0.335-0.416-0.36-0.808c-0.039-0.599,0.327-1.115,0.912-1.284
        						c0.047-0.014,0.095-0.025,0.142-0.033c0.465-0.081,0.936,0.091,1.233,0.46l0,0c0.664,0.826,1.758,1.221,2.854,1.03l0.722-0.126
        						l0.743,0.513l-0.52,0.732l0.743,0.513L15.142,28.393L15.142,28.393z M38.188,31.538c-2.934,0.51-5.978-2.745-6.784-7.256
        						c-0.807-4.511,0.924-8.596,3.858-9.106s5.978,2.745,6.784,7.256C42.853,26.943,41.122,31.028,38.188,31.538z"></path>
    <path style="fill:#0C6BED;" d="M56.14,20.327l-4.035,0.701l1.574-2.217c0.187-0.264-0.042-0.619-0.364-0.563l-7.009,1.218
        						c-0.422,0.073-0.695,0.489-0.578,0.906c0.102,0.364,0.487,0.577,0.864,0.511l4.004-0.696l-1.574,2.217
        						c-0.187,0.264,0.042,0.619,0.364,0.563l6.978-1.213c0.377-0.066,0.665-0.396,0.634-0.772C56.963,20.552,56.562,20.254,56.14,20.327
        						z"></path>
    <path style="fill:#0C6BED;" d="M43.796,14.793l3.521-2.004l-0.71,2.614c-0.084,0.311,0.254,0.567,0.537,0.406l6.136-3.493
        						c0.331-0.189,0.487-0.596,0.329-0.939c-0.182-0.394-0.663-0.539-1.034-0.328l-3.548,2.02l0.71-2.614
        						c0.084-0.311-0.254-0.567-0.537-0.406l-6.164,3.508c-0.371,0.211-0.484,0.694-0.229,1.047
        						C43.028,14.912,43.464,14.982,43.796,14.793z"></path>
    <path style="fill:#0C6BED;" d="M55.869,30.324l-4.035-0.701l2.249-1.552c0.267-0.185,0.175-0.596-0.147-0.652L46.927,26.2
        						c-0.422-0.073-0.823,0.225-0.858,0.656c-0.03,0.376,0.258,0.706,0.634,0.772l4.004,0.696l-2.249,1.552
        						c-0.267,0.185-0.175,0.596,0.146,0.652l6.978,1.213c0.377,0.066,0.762-0.148,0.864-0.511
        						C56.564,30.813,56.291,30.397,55.869,30.324z"></path>
  </g>
</svg>
