<?xml version="1.0" encoding="UTF-8"?>
<svg width="945px" height="427px" viewBox="0 0 945 427" version="1.1" xmlns="http://www.w3.org/2000/svg" xmlns:xlink="http://www.w3.org/1999/xlink">
    <!-- Generator: Sketch 61 (89581) - https://sketch.com -->
    <title>Group</title>
    <desc>Created with Sketch.</desc>
    <g id="base" stroke="none" stroke-width="1" fill="none" fill-rule="evenodd">
        <g id="logo-dark-copy-2" transform="translate(-1372.000000, -527.000000)" fill="#FFFFFF">
            <g id="Group" transform="translate(1372.000000, 527.000000)">
                <path d="M558.34934,94 C592.1056,94 642.460946,109.93497 661.831332,156.837431 C646.634897,171.720588 625.811245,180.896931 602.840015,180.896931 C602.316282,180.896931 601.793666,180.892161 601.272208,180.882662 C595.44687,162.303096 572.303822,160.532695 560.537992,160.532695 C547.403511,160.532695 530.722612,167.970806 530.722612,183.064136 C530.722612,192.919654 540.334205,197.495465 560.501644,197.495465 C619.336146,197.495465 666.080555,215.75827 666.98626,267.047174 L667,268.604402 C667,320.611549 623.999854,360 560.501644,360 C516.516554,360 473.374116,331.032129 457.57551,294.544713 C472.641416,277.891433 493.970572,267.198659 517.619183,267.198659 C519.696789,267.198659 521.756492,267.275289 523.795621,267.425875 C526.81114,283.184328 545.55641,289.662634 559.8875,289.662634 C575.517554,289.662634 592.064641,283.942727 592.064641,268.040527 C592.064641,257.21158 580.61463,253.642755 561.325672,252.948769 L560.711102,252.957309 C504.63406,252.957309 455.919445,235.346393 455.01374,184.057489 L455,182.500261 C455,133.635784 503.280372,94 558.34934,94 Z" id="Path-2"></path>
                <path d="M372.429231,44 C385.92237,44 398.678493,47.1342423 409.999892,52.7097295 L409.999892,296.290271 C398.678493,301.865758 385.92237,305 372.429231,305 C358.992438,305 346.286519,301.891879 335.000476,296.35999 L335.000476,52.6400096 C346.286519,47.1081205 358.992438,44 372.429231,44 Z" id="Rectangle-3"></path>
                <path d="M747.435945,0 C760.656195,0 773.168887,3.02250611 784.317702,8.41269503 L784.317051,161.668383 C797.153328,156.419577 811.107002,153.433622 825.710324,153.190606 L827.647322,153.1745 C891.690834,153.1745 943.729619,205.928461 944.76399,271.408096 L944.769049,272.251 L944.944843,272.251814 L944.522949,418.460732 C933.30865,423.930155 920.703913,427 907.380536,427 C894.197168,427 881.717416,423.994335 870.592121,418.632363 L870.976049,272.447 L870.892332,272.447324 C870.895961,272.211877 870.897782,271.975983 870.897782,271.739654 C870.897782,247.37139 851.533891,227.617008 827.647322,227.617008 C803.760752,227.617008 784.396861,247.37139 784.396861,271.739654 L784.402683,272.4465 L784.317049,272.446 L784.31783,390.65371 C773.368681,395.808402 761.133622,398.690608 748.223849,398.690608 C734.470488,398.690608 721.4829,395.419419 710.000049,389.614321 L710.000216,8.68302691 C721.287858,3.12366602 733.996282,0 747.435945,0 Z" id="Rectangle-2"></path>
                <path d="M237.812333,1 C250.872133,1 263.239642,3.97634396 274.278838,9.29037144 L274.275957,286.616186 C277.009069,317.774672 302.678104,342.340299 334.266972,343.266647 C337.333532,352.017355 339,361.425932 339,371.223441 C339,388.689816 333.704699,404.919705 324.63104,418.396585 C291.69009,415.667081 262.044099,401.30903 239.792099,379.430196 C214.700455,407.981783 177.915638,426 136.923546,426 C61.3027595,426 0,364.681148 0,289.04051 C0,213.399872 61.3027595,152.08102 136.923546,152.08102 C159.606184,152.08102 181.000609,157.597966 199.838836,167.363542 L199.837365,10.035218 C211.253539,4.25523901 224.154355,1 237.812333,1 Z M136.923546,225.456991 C102.63646,225.456991 74.841286,253.30171 74.841286,287.649913 C74.841286,321.998115 102.63646,349.842834 136.923546,349.842834 C171.210631,349.842834 199.005805,321.998115 199.005805,287.649913 C199.005805,253.30171 171.210631,225.456991 136.923546,225.456991 Z" id="Oval-2"></path>
            </g>
        </g>
    </g>
</svg>