<?xml version="1.0" encoding="UTF-8" standalone="no"?>
<!-- Created with Inkscape (http://www.inkscape.org/) -->
<svg xmlns:svg="http://www.w3.org/2000/svg" xmlns="http://www.w3.org/2000/svg" xmlns:xlink="http://www.w3.org/1999/xlink" version="1.1" width="400" height="550" id="svg2">
  <defs id="defs4">
    <linearGradient id="linearGradient8702">
      <stop id="stop8704" style="stop-color:#dce1ea;stop-opacity:1" offset="0"/>
      <stop id="stop8706" style="stop-color:#c0cad9;stop-opacity:1" offset="1"/>
    </linearGradient>
    <linearGradient id="linearGradient8443">
      <stop id="stop8445" style="stop-color:#000000;stop-opacity:1" offset="0"/>
      <stop id="stop8447" style="stop-color:#000000;stop-opacity:0" offset="1"/>
    </linearGradient>
    <linearGradient id="linearGradient8263">
      <stop id="stop8265" style="stop-color:#000000;stop-opacity:1" offset="0"/>
      <stop id="stop8267" style="stop-color:#000000;stop-opacity:0" offset="1"/>
    </linearGradient>
    <linearGradient id="linearGradient8243">
      <stop id="stop8245" style="stop-color:#142842;stop-opacity:1" offset="0"/>
      <stop id="stop8251" style="stop-color:#1a3453;stop-opacity:1" offset="0.08385646"/>
      <stop id="stop8247" style="stop-color:#172e4a;stop-opacity:1" offset="1"/>
    </linearGradient>
    <linearGradient id="linearGradient8235">
      <stop id="stop8237" style="stop-color:#0b121e;stop-opacity:1" offset="0"/>
      <stop id="stop8239" style="stop-color:#1b2c47;stop-opacity:1" offset="1"/>
    </linearGradient>
    <linearGradient id="linearGradient8181">
      <stop id="stop8183" style="stop-color:#494b47;stop-opacity:1" offset="0"/>
      <stop id="stop8185" style="stop-color:#7e817b;stop-opacity:1" offset="1"/>
    </linearGradient>
    <linearGradient id="linearGradient8125">
      <stop id="stop8127" style="stop-color:#8d8d8d;stop-opacity:1" offset="0"/>
      <stop id="stop8129" style="stop-color:#a2a2a2;stop-opacity:1" offset="1"/>
    </linearGradient>
    <linearGradient id="linearGradient8095">
      <stop id="stop8097" style="stop-color:#ffffff;stop-opacity:1" offset="0"/>
      <stop id="stop8099" style="stop-color:#ffffff;stop-opacity:0" offset="1"/>
    </linearGradient>
    <linearGradient id="linearGradient8075">
      <stop id="stop8077" style="stop-color:#2e3436;stop-opacity:1" offset="0"/>
      <stop id="stop8079" style="stop-color:#262b2d;stop-opacity:1" offset="1"/>
    </linearGradient>
    <linearGradient id="linearGradient8065">
      <stop id="stop8067" style="stop-color:#a0a0a0;stop-opacity:1" offset="0"/>
      <stop id="stop8073" style="stop-color:#aaaaaa;stop-opacity:1" offset="0.40000001"/>
      <stop id="stop8069" style="stop-color:#969696;stop-opacity:1" offset="1"/>
    </linearGradient>
    <linearGradient id="linearGradient8053">
      <stop id="stop8055" style="stop-color:#989898;stop-opacity:1" offset="0"/>
      <stop id="stop8061" style="stop-color:#c7c7c7;stop-opacity:1" offset="0.03"/>
      <stop id="stop8063" style="stop-color:#c7c7c7;stop-opacity:1" offset="0.97000003"/>
      <stop id="stop8057" style="stop-color:#989898;stop-opacity:1" offset="1"/>
    </linearGradient>
    <linearGradient x1="1044.494" y1="454.8363" x2="1420.8883" y2="454.8363" id="linearGradient8569" xlink:href="#linearGradient8053" gradientUnits="userSpaceOnUse" gradientTransform="translate(0.42500144,-0.6066262)"/>
    <linearGradient x1="1044.494" y1="213.32445" x2="1420.8883" y2="213.32445" id="linearGradient8571" xlink:href="#linearGradient8065" gradientUnits="userSpaceOnUse" gradientTransform="translate(0,-0.96733016)"/>
    <radialGradient cx="1258.4324" cy="397.8363" r="162.39394" fx="1258.4324" fy="397.8363" id="radialGradient8573" xlink:href="#linearGradient8075" gradientUnits="userSpaceOnUse" gradientTransform="matrix(0.98525846,0.17107242,-0.21134819,1.217219,102.63322,-301.70066)"/>
    <linearGradient x1="1070.3125" y1="573.54688" x2="1395.0938" y2="573.54688" id="linearGradient8575" xlink:href="#linearGradient8125" gradientUnits="userSpaceOnUse"/>
    <linearGradient x1="1229.833" y1="337.10272" x2="1205.5524" y2="225.60284" id="linearGradient8577" xlink:href="#linearGradient8095" gradientUnits="userSpaceOnUse"/>
    <linearGradient x1="344.4375" y1="494.52933" x2="660.59375" y2="494.52933" id="linearGradient8619" xlink:href="#linearGradient8243" gradientUnits="userSpaceOnUse" gradientTransform="matrix(0.75377969,0,0,0.75377969,-219.45407,399.36759)"/>
    <linearGradient x1="421.97687" y1="434.50565" x2="648.74463" y2="482.70663" id="linearGradient8623" xlink:href="#linearGradient8263" gradientUnits="userSpaceOnUse" gradientTransform="matrix(0.75377969,0,0,0.75377969,-219.45407,359.89804)"/>
    <linearGradient x1="760.65625" y1="412.89941" x2="372.04007" y2="372.0542" id="linearGradient8641" xlink:href="#linearGradient8443" gradientUnits="userSpaceOnUse" gradientTransform="matrix(0.75377969,0,0,0.75377969,-219.45407,399.36759)"/>
    <radialGradient cx="486.84409" cy="464.44922" r="88.522751" fx="486.84409" fy="464.44922" id="radialGradient8713" xlink:href="#linearGradient8702" gradientUnits="userSpaceOnUse" gradientTransform="matrix(0.75377969,0,0,1.0569077,-214.38767,216.07063)"/>
    <filter x="-0.039827622" y="-0.12157859" width="1.0796552" height="1.2431571" color-interpolation-filters="sRGB" id="filter8821">
      <feGaussianBlur id="feGaussianBlur8823" stdDeviation="5.3601661"/>
    </filter>
  </defs>
  <g transform="translate(0,-502.36218)" id="layer1" style="display:inline">
    <path d="m 50.740397,912.42711 c 0,0 -23.218274,1.22758 -6.956562,9.67546 18.824619,9.7793 222.081965,93.13453 222.081965,93.13453 0,0 26.3915,10.9932 13.14981,-9.0984 -2.30608,-3.499 -185.172545,-67.68371 -185.172545,-73.76911 0,-6.08541 208.545855,18.93696 227.115105,20.81186 18.56925,1.8749 36.31045,-1.17953 39.47391,-6.40937 3.16346,-5.22983 -7.29745,-6.86211 -17.89795,-9.37687 L 50.740397,912.42711 z" id="path8710" style="opacity:0.3;stroke-width:1px;filter:url(#filter8821)"/>
    <g transform="matrix(1.0337732,0.11388499,0,1.0337732,-711.73472,-100.7505)" id="g8337"/>
    <path d="m 45.779113,528.62679 13.57108,390.24098 288.579847,30.33097 c 4.68189,0.49208 8.45646,-2.88577 8.45646,-7.56766 l 0,-371.04805 c 0,-4.68189 -3.77457,-8.8532 -8.45646,-9.34528 l -288.579847,-30.33096 -13.57108,-2.28 z" id="rect7167" style="fill:#172e4a;fill-opacity:1;stroke:none"/>
    <path d="m 66.675989,531.96215 c -3.414441,-0.0314 -6.053793,2.5455 -6.053793,6.05379 l 0,375.09962 c 0,2.51543 1.363015,4.85594 3.392009,6.24224 l 283.915835,29.84496 c 2.15253,0.22624 4.11592,-0.37069 5.60623,-1.53111 0.25505,-0.68538 0.37689,-1.43451 0.37689,-2.23779 l 0,-375.12317 c 0,-3.74218 -2.99472,-7.07843 -6.7369,-7.49069 L 67.382658,531.9857 c -0.233883,-0.0258 -0.479042,-0.0215 -0.706669,-0.0235 z" id="path8440" style="opacity:0.15;fill:url(#linearGradient8641);fill-opacity:1;stroke:none"/>
    <g transform="matrix(0.77923724,0.08584419,0,0.77923724,-755.94524,283.95436)" id="g8209">
      <rect width="376.39429" height="498.72235" rx="22.616434" ry="7.7037783" x="1044.9191" y="204.86848" id="rect7227" style="fill:url(#linearGradient8569);fill-opacity:1;stroke:none"/>
      <rect width="376.39429" height="15.69868" rx="10.99227" ry="11.05296" x="1044.494" y="204.50778" id="rect7225" style="fill:url(#linearGradient8571);fill-opacity:1;stroke:none"/>
      <rect width="324.78787" height="324.78787" x="1070.2972" y="235.44235" id="rect7229" style="fill:url(#radialGradient8573);fill-opacity:1;stroke:none"/>
      <path d="m 1070.8626,564.48588 0,20.375 18.5313,0 0,-20.375 -18.5313,0 z m 21.875,0 0,20.375 18.5313,0 0,-20.375 -18.5313,0 z m 21.875,0 0,20.375 18.5313,0 0,-20.375 -18.5313,0 z m 21.875,0 0,20.375 18.5313,0 0,-20.375 -18.5313,0 z m 21.875,0 0,20.375 18.5313,0 0,-20.375 -18.5313,0 z m 21.875,0 0,20.375 18.5313,0 0,-20.375 -18.5313,0 z m 21.875,0 0,20.375 18.5313,0 0,-20.375 -18.5313,0 z m 21.875,0 0,20.375 18.5313,0 0,-20.375 -18.5313,0 z m 21.875,0 0,20.375 18.5313,0 0,-20.375 -18.5313,0 z m 21.875,0 0,20.375 18.5313,0 0,-20.375 -18.5313,0 z m 21.875,0 0,20.375 18.5313,0 0,-20.375 -18.5313,0 z m 21.875,0 0,20.375 18.5313,0 0,-20.375 -18.5313,0 z m 21.875,0 0,20.375 18.5313,0 0,-20.375 -18.5313,0 z m 21.875,0 0,20.375 18.5313,0 0,-20.375 -18.5313,0 z m 21.875,0 0,20.375 18.5313,0 0,-20.375 -18.5313,0 z m -306.25,25.125 0,20.65625 18.5313,0 0,-20.65625 -18.5313,0 z m 21.875,0 0,20.65625 18.5313,0 0,-20.65625 -18.5313,0 z m 21.875,0 0,20.65625 18.5313,0 0,-20.65625 -18.5313,0 z m 21.875,0 0,20.65625 18.5313,0 0,-20.65625 -18.5313,0 z m 21.875,0 0,20.65625 18.5313,0 0,-20.65625 -18.5313,0 z m 21.875,0 0,20.65625 18.5313,0 0,-20.65625 -18.5313,0 z m 21.875,0 0,20.65625 18.5313,0 0,-20.65625 -18.5313,0 z m 21.875,0 0,20.65625 18.5313,0 0,-20.65625 -18.5313,0 z m 21.875,0 0,20.65625 18.5313,0 0,-20.65625 -18.5313,0 z m 21.875,0 0,20.65625 18.5313,0 0,-20.65625 -18.5313,0 z m 21.875,0 0,20.65625 18.5313,0 0,-20.65625 -18.5313,0 z m 21.875,0 0,20.65625 18.5313,0 0,-20.65625 -18.5313,0 z m 21.875,0 0,20.65625 18.5313,0 0,-20.65625 -18.5313,0 z m 21.875,0 0,20.65625 18.5313,0 0,-20.65625 -18.5313,0 z m 21.875,0 0,20.65625 18.5313,0 0,-20.65625 -18.5313,0 z m -306.25,25.40625 0,20.625 18.5313,0 0,-20.625 -18.5313,0 z m 21.875,0 0,20.625 18.5313,0 0,-20.625 -18.5313,0 z m 21.875,0 0,20.625 18.5313,0 0,-20.625 -18.5313,0 z m 21.875,0 0,20.625 18.5313,0 0,-20.625 -18.5313,0 z m 21.875,0 0,20.625 18.5313,0 0,-20.625 -18.5313,0 z m 21.875,0 0,20.625 18.5313,0 0,-20.625 -18.5313,0 z m 21.875,0 0,20.625 18.5313,0 0,-20.625 -18.5313,0 z m 21.875,0 0,20.625 18.5313,0 0,-20.625 -18.5313,0 z m 21.875,0 0,20.625 18.5313,0 0,-20.625 -18.5313,0 z m 21.875,0 0,20.625 18.5313,0 0,-20.625 -18.5313,0 z m 21.875,0 0,20.625 18.5313,0 0,-20.625 -18.5313,0 z m 21.875,0 0,20.625 18.5313,0 0,-20.625 -18.5313,0 z m 21.875,0 0,20.625 18.5313,0 0,-20.625 -18.5313,0 z m 21.875,0 0,20.625 18.5313,0 0,-20.625 -18.5313,0 z m 21.875,0 0,20.625 18.5313,0 0,-20.625 -18.5313,0 z m -306.25,25.40625 0,20.625 18.5313,0 0,-20.625 -18.5313,0 z m 21.875,0 0,20.625 18.5313,0 0,-20.625 -18.5313,0 z m 21.875,0 0,20.625 18.5313,0 0,-20.625 -18.5313,0 z m 21.875,0 0,20.625 18.5313,0 0,-20.625 -18.5313,0 z m 21.875,0 0,20.625 18.5313,0 0,-20.625 -18.5313,0 z m 21.875,0 0,20.625 18.5313,0 0,-20.625 -18.5313,0 z m 21.875,0 0,20.625 18.5313,0 0,-20.625 -18.5313,0 z m 21.875,0 0,20.625 18.5313,0 0,-20.625 -18.5313,0 z m 21.875,0 0,20.625 18.5313,0 0,-20.625 -18.5313,0 z m 21.875,0 0,20.625 18.5313,0 0,-20.625 -18.5313,0 z m 21.875,0 0,20.625 18.5313,0 0,-20.625 -18.5313,0 z m 21.875,0 0,20.625 18.5313,0 0,-20.625 -18.5313,0 z m 21.875,0 0,20.625 18.5313,0 0,-20.625 -18.5313,0 z m 21.875,0 0,20.625 18.5313,0 0,-20.625 -18.5313,0 z m 21.875,0 0,20.625 18.5313,0 0,-20.625 -18.5313,0 z m -306.25,25.375 0,20.40625 18.5313,0 0,-20.40625 -18.5313,0 z m 21.875,0 0,20.40625 18.5313,0 0,-20.40625 -18.5313,0 z m 21.875,0 0,20.40625 18.5313,0 0,-20.40625 -18.5313,0 z m 21.875,0 0,20.40625 18.5313,0 0,-20.40625 -18.5313,0 z m 21.875,0 0,20.40625 18.5313,0 0,-20.40625 -18.5313,0 z m 21.875,0 0,20.40625 18.5313,0 0,-20.40625 -18.5313,0 z m 21.875,0 0,20.40625 18.5313,0 0,-20.40625 -18.5313,0 z m 21.875,0 0,20.40625 18.5313,0 0,-20.40625 -18.5313,0 z m 21.875,0 0,20.40625 18.5313,0 0,-20.40625 -18.5313,0 z m 21.875,0 0,20.40625 18.5313,0 0,-20.40625 -18.5313,0 z m 21.875,0 0,20.40625 18.5313,0 0,-20.40625 -18.5313,0 z m 21.875,0 0,20.40625 18.5313,0 0,-20.40625 -18.5313,0 z" id="path8123" style="fill:#6f6f6f;fill-opacity:1;stroke:none"/>
      <path d="m 1070.3125,512.6875 0,20.375 18.5313,0 0,-20.375 -18.5313,0 z m 21.875,0 0,20.375 18.5313,0 0,-20.375 -18.5313,0 z m 21.875,0 0,20.375 18.5313,0 0,-20.375 -18.5313,0 z m 21.875,0 0,20.375 18.5313,0 0,-20.375 -18.5313,0 z m 21.875,0 0,20.375 18.5313,0 0,-20.375 -18.5313,0 z m 21.875,0 0,20.375 18.5313,0 0,-20.375 -18.5313,0 z m 21.875,0 0,20.375 18.5313,0 0,-20.375 -18.5313,0 z m 21.875,0 0,20.375 18.5313,0 0,-20.375 -18.5313,0 z m 21.875,0 0,20.375 18.5313,0 0,-20.375 -18.5313,0 z m 21.875,0 0,20.375 18.5313,0 0,-20.375 -18.5313,0 z m 21.875,0 0,20.375 18.5313,0 0,-20.375 -18.5313,0 z m 21.875,0 0,20.375 18.5313,0 0,-20.375 -18.5313,0 z m 21.875,0 0,20.375 18.5313,0 0,-20.375 -18.5313,0 z m 21.875,0 0,20.375 18.5313,0 0,-20.375 -18.5313,0 z m 21.875,0 0,20.375 18.5313,0 0,-20.375 -18.5313,0 z m -306.25,25.125 0,20.65625 18.5313,0 0,-20.65625 -18.5313,0 z m 21.875,0 0,20.65625 18.5313,0 0,-20.65625 -18.5313,0 z m 21.875,0 0,20.65625 18.5313,0 0,-20.65625 -18.5313,0 z m 21.875,0 0,20.65625 18.5313,0 0,-20.65625 -18.5313,0 z m 21.875,0 0,20.65625 18.5313,0 0,-20.65625 -18.5313,0 z m 21.875,0 0,20.65625 18.5313,0 0,-20.65625 -18.5313,0 z m 21.875,0 0,20.65625 18.5313,0 0,-20.65625 -18.5313,0 z m 21.875,0 0,20.65625 18.5313,0 0,-20.65625 -18.5313,0 z m 21.875,0 0,20.65625 18.5313,0 0,-20.65625 -18.5313,0 z m 21.875,0 0,20.65625 18.5313,0 0,-20.65625 -18.5313,0 z m 21.875,0 0,20.65625 18.5313,0 0,-20.65625 -18.5313,0 z m 21.875,0 0,20.65625 18.5313,0 0,-20.65625 -18.5313,0 z m 21.875,0 0,20.65625 18.5313,0 0,-20.65625 -18.5313,0 z m 21.875,0 0,20.65625 18.5313,0 0,-20.65625 -18.5313,0 z m 21.875,0 0,20.65625 18.5313,0 0,-20.65625 -18.5313,0 z m -306.25,25.40625 0,20.625 18.5313,0 0,-20.625 -18.5313,0 z m 21.875,0 0,20.625 18.5313,0 0,-20.625 -18.5313,0 z m 21.875,0 0,20.625 18.5313,0 0,-20.625 -18.5313,0 z m 21.875,0 0,20.625 18.5313,0 0,-20.625 -18.5313,0 z m 21.875,0 0,20.625 18.5313,0 0,-20.625 -18.5313,0 z m 21.875,0 0,20.625 18.5313,0 0,-20.625 -18.5313,0 z m 21.875,0 0,20.625 18.5313,0 0,-20.625 -18.5313,0 z m 21.875,0 0,20.625 18.5313,0 0,-20.625 -18.5313,0 z m 21.875,0 0,20.625 18.5313,0 0,-20.625 -18.5313,0 z m 21.875,0 0,20.625 18.5313,0 0,-20.625 -18.5313,0 z m 21.875,0 0,20.625 18.5313,0 0,-20.625 -18.5313,0 z m 21.875,0 0,20.625 18.5313,0 0,-20.625 -18.5313,0 z m 21.875,0 0,20.625 18.5313,0 0,-20.625 -18.5313,0 z m 21.875,0 0,20.625 18.5313,0 0,-20.625 -18.5313,0 z m 21.875,0 0,20.625 18.5313,0 0,-20.625 -18.5313,0 z m -306.25,25.40625 0,20.625 18.5313,0 0,-20.625 -18.5313,0 z m 21.875,0 0,20.625 18.5313,0 0,-20.625 -18.5313,0 z m 21.875,0 0,20.625 18.5313,0 0,-20.625 -18.5313,0 z m 21.875,0 0,20.625 18.5313,0 0,-20.625 -18.5313,0 z m 21.875,0 0,20.625 18.5313,0 0,-20.625 -18.5313,0 z m 21.875,0 0,20.625 18.5313,0 0,-20.625 -18.5313,0 z m 21.875,0 0,20.625 18.5313,0 0,-20.625 -18.5313,0 z m 21.875,0 0,20.625 18.5313,0 0,-20.625 -18.5313,0 z m 21.875,0 0,20.625 18.5313,0 0,-20.625 -18.5313,0 z m 21.875,0 0,20.625 18.5313,0 0,-20.625 -18.5313,0 z m 21.875,0 0,20.625 18.5313,0 0,-20.625 -18.5313,0 z m 21.875,0 0,20.625 18.5313,0 0,-20.625 -18.5313,0 z m 21.875,0 0,20.625 18.5313,0 0,-20.625 -18.5313,0 z m 21.875,0 0,20.625 18.5313,0 0,-20.625 -18.5313,0 z m 21.875,0 0,20.625 18.5313,0 0,-20.625 -18.5313,0 z m -306.25,25.375 0,20.40625 18.5313,0 0,-20.40625 -18.5313,0 z m 21.875,0 0,20.40625 18.5313,0 0,-20.40625 -18.5313,0 z m 21.875,0 0,20.40625 18.5313,0 0,-20.40625 -18.5313,0 z m 21.875,0 0,20.40625 18.5313,0 0,-20.40625 -18.5313,0 z m 21.875,0 0,20.40625 18.5313,0 0,-20.40625 -18.5313,0 z m 21.875,0 0,20.40625 18.5313,0 0,-20.40625 -18.5313,0 z m 21.875,0 0,20.40625 18.5313,0 0,-20.40625 -18.5313,0 z m 21.875,0 0,20.40625 18.5313,0 0,-20.40625 -18.5313,0 z m 21.875,0 0,20.40625 18.5313,0 0,-20.40625 -18.5313,0 z m 21.875,0 0,20.40625 18.5313,0 0,-20.40625 -18.5313,0 z m 21.875,0 0,20.40625 18.5313,0 0,-20.40625 -18.5313,0 z m 21.875,0 0,20.40625 18.5313,0 0,-20.40625 -18.5313,0 z" transform="translate(0,52.362183)" id="path8113" style="fill:url(#linearGradient8575);fill-opacity:1;stroke:none"/>
      <path d="m 1333.319,665.91215 0,20.40625 62.2813,0 0,-20.40625 -62.2813,0 z" id="path8133" style="fill:#225511;fill-opacity:1;stroke:none"/>
      <path d="m 1332.8125,614 0,20.40625 62.2813,0 0,-20.40625 -62.2813,0 z" transform="translate(0,52.362183)" id="rect7231" style="fill:#3f9e1f;fill-opacity:1;stroke:none"/>
      <path d="m 1070.3125,183.09375 0,324.78125 324.7813,0 0,-2.96875 -320.6563,0 0,-321.8125 -4.125,0 z" transform="translate(0,52.362183)" id="rect8085" style="opacity:0.34883722;fill:#000000;fill-opacity:1;stroke:none"/>
      <path d="m 1070.3125,183.09375 0,200.625 324.7813,-72.09375 0,-128.53125 -324.7813,0 z" transform="translate(0,52.362183)" id="rect8090" style="opacity:0.02000002;fill:url(#linearGradient8577);fill-opacity:1;stroke:none"/>
      <g transform="translate(1.4744808,0.61517807)" id="g8203">
        <text x="-689.91693" y="1374.8364" transform="matrix(0,-1,1,0,0,0)" id="text8199" xml:space="preserve" style="font-size:33.55711365px;font-style:normal;font-variant:normal;font-weight:normal;font-stretch:normal;fill:#338119;fill-opacity:1;font-family:Sans;-inkscape-font-specification:Sans"><tspan x="-689.91693" y="1374.8364" id="tspan8201">↓</tspan></text>
        <text x="-690.06775" y="1374.4695" transform="matrix(0,-1,1,0,0,0)" id="text8195" xml:space="preserve" style="font-size:33.55711365px;font-style:normal;font-variant:normal;font-weight:normal;font-stretch:normal;fill:#75dd52;fill-opacity:1;font-family:Sans;-inkscape-font-specification:Sans"><tspan x="-690.06775" y="1374.4695" id="tspan8197">↓</tspan></text>
      </g>
    </g>
    <path d="m 45.779113,528.62679 13.57108,390.24098 288.579847,30.33097 c 4.68189,0.49208 8.45646,-2.88577 8.45646,-7.56766 l 0,-371.04805 c 0,-4.68189 -3.77457,-8.8532 -8.45646,-9.34528 l -288.579847,-30.33096 -13.57108,-2.28 z" id="path8261" style="opacity:0.41999996;fill:url(#linearGradient8623);fill-opacity:1;stroke:none"/>
    <path d="m 58.29019,540.81906 0,375.09962 c 0,3.3257 7.856141,6.86266 17.6196,7.93824 l 231.29259,25.48718 0,-340.11953 c 0,-4.68189 -3.77458,-9.46205 -8.45647,-10.71781 L 129.42815,553.09154 66.534656,546.16618 c -3.923755,-0.43225 -7.222424,-2.67303 -8.244466,-5.34712 z" id="path8277" style="opacity:0.05;fill:#000000;fill-opacity:1;stroke:none"/>
    <path d="m 47.336829,527.18036 -7.160907,2.41445 0,2.36734 0,7.65557 0,378.51088 c 0,2.28989 2.655581,2.6402 12.131142,6.85899 L 272.0574,1016.6661 c 3.5652,1.4872 6.43068,-1.0892 6.43068,-5.7711 l 0,-371.04813 c 0,-4.68189 -2.86548,-9.65456 -6.43068,-11.14181 l -219.750336,-91.67845 -4.923124,-2.04934 0,-7.79691 -0.04711,0 z" id="path7174" style="fill:url(#linearGradient8619);fill-opacity:1;stroke:none"/>
    <path d="m 40.464069,528.27661 c -1.787045,2.42615 1.637315,5.62534 10.926097,9.50377 L 271.1405,629.45884 c 3.5652,1.48724 6.43068,6.45991 6.43068,11.1418 l 0,371.04806 c 0,4.7252 -1.0847,4.4272 -2.46287,5.2886 7.93665,-2.0867 7.00108,-4.236 7.00108,-8.2882 l -0.0155,-371.06357 c 0,-4.6819 -2.86548,-9.65457 -6.43068,-11.14181 L 55.912844,534.76526 c 0,0 -7.399538,-3.13472 -6.816369,-4.1168 0.583169,-0.98208 10.0906,0.25368 10.0906,0.25368 l 288.579845,30.33964 c 4.68189,0.49208 8.45646,4.66968 8.45646,9.35158 l 0,371.04805 c 0,1.55817 -0.82606,5.57626 -4.70388,7.1444 8.11746,-2.50652 8.47278,-6.74384 8.47278,-10.15952 l 0,-371.04805 c 0,-4.68189 -3.77457,-8.8595 -8.45646,-9.35158 L 62.955973,527.88702 c 0,0 -20.704858,-2.03656 -22.491904,0.38959 z" id="path7180" style="fill:#0f1d2f;fill-opacity:1;stroke:none"/>
    <path d="m 140.44272,612.58545 c -2.93395,-0.96764 -8.04415,0.0151 -7.44023,12.12306 0.73619,14.76011 4.93298,23.7864 8.58923,30.81459 3.65626,7.02821 7.47928,18.69841 7.55325,20.94784 -7.3275,0.47337 -18.69807,-8.66032 -25.3533,-8.67651 0,0 -10.51276,-0.49975 -11.67835,5.52496 -1.16359,6.01447 0.81136,9.73511 4.52065,13.80313 -4.12918,2.36381 -4.53664,5.46339 -4.69017,8.48226 -0.17586,3.45788 0.96379,8.58164 6.08404,12.64817 -3.40454,2.41825 -4.6217,3.59807 -4.1816,8.33557 0.44009,4.73751 3.30417,8.38438 5.68848,10.32032 -1.35426,0.97405 -2.68285,3.07279 -1.28084,8.40713 1.402,5.33435 20.42114,20.09907 32.00241,27.06631 11.55864,6.95362 23.70466,9.35369 30.13766,14.48368 1.78284,1.42172 4.69784,4.25682 7.96764,7.57174 -9.3244,4.29434 -20.65809,4.42021 -32.88772,-0.54907 -31.93951,-12.97806 -57.732436,-55.73773 -57.732436,-95.68006 0,-29.61295 14.177966,-49.23287 34.526446,-52.11497 -0.67464,-3.6481 -1.17866,-7.63102 -1.46921,-11.97435 -24.62023,2.28405 -42.060863,25.30612 -42.060863,60.43085 0,46.01829 29.937963,95.6223 66.736063,110.57455 36.7981,14.95225 66.71724,-10.32991 66.71724,-56.34819 0,-46.01828 -29.91914,-95.59109 -66.71724,-110.54334 -2.78419,-1.13131 -5.53572,-2.02923 -8.23134,-2.70866 0.2892,1.64604 0.5796,3.04335 0.90413,3.94783 1.06148,2.95846 2.84866,6.05962 4.709,9.00366 0.86833,0.30458 1.7402,0.63646 2.61821,0.99324 31.93953,12.97804 57.73245,55.71417 57.73245,95.65649 0,3.18614 -0.17147,6.25291 -0.48974,9.1997 -7.0222,-7.16974 -14.51689,-14.87168 -16.48153,-17.17922 -3.82397,-4.49139 -10.72665,-20.15826 -16.16131,-34.17405 -5.43467,-14.01579 -9.97653,-22.78963 -14.95581,-28.36063 -4.97929,-5.571 -9.6569,-17.03176 -11.15094,-20.31324 -1.49404,-3.28149 -6.34083,-9.07156 -8.19367,-14.23561 -1.16841,-3.25648 -1.84281,-14.96686 -3.80488,-16.64519 -0.24551,-0.21001 -0.58175,-0.42924 -0.97948,-0.60999 -0.174,-0.0791 -0.35064,-0.15748 -0.54624,-0.22196 z" id="path8507" style="fill:#0f1d2f;fill-opacity:1;stroke-width:1px"/>
    <path d="m 137.56378,613.66986 c -2.93395,-0.96764 -8.04415,0.0152 -7.44023,12.12306 0.73619,14.76011 4.93298,23.7864 8.58922,30.81459 3.65627,7.02821 7.47929,18.69841 7.55325,20.94784 -7.3275,0.47337 -18.69806,-8.66032 -25.35329,-8.67651 0,0 -10.51276,-0.49975 -11.67835,5.52496 -1.16359,6.01447 0.81136,9.73511 4.52065,13.80313 -4.12918,2.36381 -4.53664,5.46339 -4.69017,8.48226 -0.17586,3.45788 0.96379,8.58164 6.08404,12.64817 -3.40455,2.41825 -4.6217,3.59807 -4.1816,8.33557 0.44008,4.73751 3.30417,8.38438 5.68848,10.32032 -1.35426,0.97405 -2.68285,3.07279 -1.28085,8.40713 1.40201,5.33435 20.42115,20.09907 32.00242,27.06631 11.55864,6.95362 23.70465,9.35369 30.13766,14.48368 1.78284,1.42172 4.69784,4.25682 7.96764,7.57174 -9.3244,4.29434 -20.65809,4.42021 -32.88772,-0.54907 -31.93951,-12.97806 -57.732437,-55.73773 -57.732437,-95.68006 0,-29.61295 14.177967,-49.23287 34.526447,-52.11497 -0.67465,-3.6481 -1.17866,-7.63102 -1.46921,-11.97435 -24.62023,2.28405 -42.060864,25.30612 -42.060864,60.43085 0,46.01829 29.937964,95.6223 66.736064,110.57455 36.7981,14.95225 66.71724,-10.32991 66.71724,-56.34819 0,-46.01828 -29.91914,-95.59109 -66.71724,-110.54334 -2.78419,-1.13131 -5.53572,-2.02923 -8.23134,-2.70866 0.2892,1.64604 0.5796,3.04335 0.90413,3.94783 1.06148,2.95846 2.84866,6.05962 4.709,9.00366 0.86833,0.30458 1.74019,0.63646 2.61821,0.99324 31.93952,12.97804 57.73245,55.71417 57.73245,95.65649 0,3.18614 -0.17147,6.25291 -0.48974,9.1997 -7.0222,-7.16974 -14.51689,-14.87168 -16.48153,-17.17922 -3.82397,-4.49139 -10.72665,-20.15826 -16.16131,-34.17405 -5.43467,-14.01579 -9.97653,-22.78963 -14.95581,-28.36063 -4.97929,-5.571 -9.6569,-17.03176 -11.15094,-20.31324 -1.49404,-3.28149 -6.34083,-9.07156 -8.19367,-14.23561 -1.16841,-3.25648 -1.84281,-14.96686 -3.80488,-16.64519 -0.24551,-0.21001 -0.58175,-0.42924 -0.97948,-0.60999 -0.174,-0.0791 -0.35064,-0.15748 -0.54624,-0.22196 z" id="path8471" style="fill:url(#radialGradient8713);fill-opacity:1;stroke-width:1px"/>
  </g>
  <g transform="translate(0,-450)" id="layer2" style="display:none">
    <g transform="translate(0,-30.275044)" id="g8690">
      <g transform="matrix(0.60073088,0.25993574,0,0.79999994,-345.23977,-125.36561)" id="g8644" style="fill:#0f1d2f;fill-opacity:1">
        <text x="833.95319" y="948.04364" id="text8646" xml:space="preserve" style="font-size:52.21160126px;font-style:normal;font-variant:normal;font-weight:bold;font-stretch:normal;text-align:center;text-anchor:middle;fill:#0f1d2f;fill-opacity:1;font-family:Sans;-inkscape-font-specification:Bitstream Vera Sans Bold"><tspan x="833.95319" y="948.04364" id="tspan8648">PAS DE</tspan></text>
        <text x="730.60406" y="983.91315" id="text8650" xml:space="preserve" style="font-size:41.62178802px;font-style:normal;font-variant:normal;font-weight:normal;font-stretch:normal;fill:#0f1d2f;fill-opacity:1;font-family:Sans;-inkscape-font-specification:Sans"><tspan x="730.60406" y="983.91315" id="tspan8652" style="font-weight:bold;fill:#0f1d2f;fill-opacity:1;-inkscape-font-specification:Bitstream Vera Sans Bold">PANIQUE</tspan></text>
      </g>
      <g transform="matrix(0.60073088,0.25993574,0,0.79999994,-347.23977,-123.36561)" id="g8529" style="fill:#c0cad9;fill-opacity:1">
        <text x="833.95319" y="948.04364" id="text8513" xml:space="preserve" style="font-size:52.21160126px;font-style:normal;font-variant:normal;font-weight:bold;font-stretch:normal;text-align:center;text-anchor:middle;fill:#c0cad9;fill-opacity:1;font-family:Sans;-inkscape-font-specification:Bitstream Vera Sans Bold"><tspan x="833.95319" y="948.04364" id="tspan8521">PAS DE</tspan></text>
        <text x="730.60406" y="983.91315" id="text8525" xml:space="preserve" style="font-size:41.62178802px;font-style:normal;font-variant:normal;font-weight:normal;font-stretch:normal;fill:#c0cad9;fill-opacity:1;font-family:Sans;-inkscape-font-specification:Sans"><tspan x="730.60406" y="983.91315" id="tspan8527" style="font-weight:bold;fill:#c0cad9;fill-opacity:1;-inkscape-font-specification:Bitstream Vera Sans Bold">PANIQUE</tspan></text>
      </g>
    </g>
  </g>
  <g transform="translate(0,50)" id="layer3" style="display:inline">
    <g transform="translate(0,-30.275044)" id="g8678">
      <g transform="matrix(0.75091366,0.3249197,0,1,-226.96237,-768.33303)" id="g8654" style="fill:#0f1d2f;fill-opacity:1;display:inline">
        <text x="507.98895" y="948.11841" id="text8656" xml:space="preserve" style="font-size:46.93211365px;font-style:normal;font-variant:normal;font-weight:bold;font-stretch:normal;text-align:center;text-anchor:middle;fill:#0f1d2f;fill-opacity:1;font-family:Sans;-inkscape-font-specification:Bitstream Vera Sans Bold"><tspan x="507.98895" y="948.11841" id="tspan8658">DON’T</tspan></text>
        <text x="425.44312" y="988.79523" id="text8660" xml:space="preserve" style="font-size:49.95121765px;font-style:normal;font-variant:normal;font-weight:normal;font-stretch:normal;fill:#0f1d2f;fill-opacity:1;font-family:Sans;-inkscape-font-specification:Sans"><tspan x="425.44312" y="988.79523" id="tspan8662" style="font-weight:bold;fill:#0f1d2f;fill-opacity:1;-inkscape-font-specification:Bitstream Vera Sans Bold">PANIC</tspan></text>
      </g>
      <g transform="matrix(0.75091366,0.3249197,0,1,-228.96237,-766.33303)" id="g8583" style="fill:#c0cad9;fill-opacity:1;display:inline">
        <text x="507.98895" y="948.11841" id="text8585" xml:space="preserve" style="font-size:46.93211365px;font-style:normal;font-variant:normal;font-weight:bold;font-stretch:normal;text-align:center;text-anchor:middle;fill:#c0cad9;fill-opacity:1;font-family:Sans;-inkscape-font-specification:Bitstream Vera Sans Bold"><tspan x="507.98895" y="948.11841" id="tspan8587">DON’T</tspan></text>
        <text x="425.44312" y="988.79523" id="text8589" xml:space="preserve" style="font-size:49.95121765px;font-style:normal;font-variant:normal;font-weight:normal;font-stretch:normal;fill:#c0cad9;fill-opacity:1;font-family:Sans;-inkscape-font-specification:Sans"><tspan x="425.44312" y="988.79523" id="tspan8591" style="font-weight:bold;fill:#c0cad9;fill-opacity:1;-inkscape-font-specification:Bitstream Vera Sans Bold">PANIC</tspan></text>
      </g>
    </g>
  </g>
  <g transform="translate(0,50)" id="layer5" style="display:none">
    <g transform="translate(0,-30.275044)" id="g8670">
      <g transform="matrix(0.75091366,0.3249197,0,1,-234.29981,-774.17628)" id="g8664" style="fill:#0f1d2f;fill-opacity:1;display:inline">
        <text x="519.65015" y="974.68835" id="text8666" xml:space="preserve" style="font-size:55.73737335px;font-style:normal;font-variant:normal;font-weight:bold;font-stretch:normal;text-align:center;text-anchor:middle;fill:#0f1d2f;fill-opacity:1;font-family:Sans;-inkscape-font-specification:Bitstream Vera Sans Bold"><tspan x="519.65015" y="974.68835" id="tspan8668">H2G2</tspan></text>
      </g>
      <g transform="matrix(0.75091366,0.3249197,0,1,-236.29981,-772.17628)" id="g8599" style="fill:#c0cad9;fill-opacity:1;display:inline">
        <text x="519.65015" y="974.68835" id="text8601" xml:space="preserve" style="font-size:55.73737335px;font-style:normal;font-variant:normal;font-weight:bold;font-stretch:normal;text-align:center;text-anchor:middle;fill:#c0cad9;fill-opacity:1;font-family:Sans;-inkscape-font-specification:Bitstream Vera Sans Bold"><tspan x="519.65015" y="974.68835" id="tspan8603">H2G2</tspan></text>
      </g>
    </g>
  </g>
</svg>