<?xml version="1.0" encoding="UTF-8"?>
<svg width="1024px" height="1024px" viewBox="0 0 1024 1024" version="1.1" xmlns="http://www.w3.org/2000/svg" xmlns:xlink="http://www.w3.org/1999/xlink">
    <title>icon</title>
    <defs>
        <path d="M624.856059,57.4818247 L642.37358,62.1756303 C739.460043,88.1898698 812.439261,127.589272 868.133607,179.776687 C923.827953,231.964102 961.177574,296.655543 978.526028,370.981969 C995.874482,445.308395 993.505757,528.209953 967.491517,625.296417 L962.983829,642.119339 C936.969589,739.205802 897.570187,812.185021 845.382772,867.879366 C793.195357,923.573712 728.503915,960.923333 654.17749,978.271787 C579.851064,995.620242 496.949506,993.251516 399.863042,967.237276 L382.345522,962.543471 C285.259058,936.529231 212.27984,897.129829 156.585494,844.942414 C100.891148,792.754999 63.5415275,728.063558 46.1930731,653.737132 C28.8446188,579.410706 31.2133446,496.509148 57.2275841,399.422685 L61.7352726,382.599762 C87.7495121,285.513299 127.148914,212.53408 179.336329,156.839735 C231.523744,101.145389 296.215186,63.7957681 370.541611,46.4473138 C444.868037,29.0988594 527.769595,31.4675852 624.856059,57.4818247 Z M610.511029,186.666667 C594.84123,186.666667 579.602284,188.514984 564.999508,192.005899 L564.999508,192.005899 L565.003062,423.212772 C534.771833,405.097721 499.287196,394.666667 461.333333,394.666667 C350.876383,394.666667 261.333333,483.015809 261.333333,592 C261.333333,700.984191 350.876383,789.333333 461.333333,789.333333 C524.652687,789.333333 581.099428,760.300515 617.741158,714.988115 C618.500223,715.803327 619.26614,716.612216 620.038819,717.414693 C650.106304,748.64172 690.412354,770.159099 735.644477,776.716731 C741.021919,762.86419 744.898974,748.174711 747.052162,732.817027 C749.432821,715.836871 749.563159,699.059657 747.670563,682.790784 C700.624184,674.997841 664.292029,635.867629 661.288858,587.796551 C661.248817,585.905964 661.181827,584.021915 661.088253,582.144761 L661.088253,582.144761 L661.083091,581.574331 L661.087804,582.135744 C661.075173,581.882601 661.062059,581.629584 661.048463,581.376693 L661.006226,580.618399 L661.001522,193.266182 C644.895611,188.961364 627.970773,186.666667 610.511029,186.666667 Z M461.333333,487.31394 C516.707336,487.31394 561.95951,530.160937 565.019954,584.152415 C565.047547,586.100418 565.103692,588.041602 565.187994,589.975577 L565.187994,589.975577 L565.189374,589.996406 C565.189374,646.706366 518.691441,692.678872 461.333333,692.678872 C403.975226,692.678872 357.477292,646.706366 357.477292,589.996406 C357.477292,533.286446 403.975226,487.31394 461.333333,487.31394 Z" id="path-1"></path>
    </defs>
    <g id="icon" stroke="none" stroke-width="1" fill="none" fill-rule="evenodd">
        <mask id="mask-2" fill="white">
            <use xlink:href="#path-1"></use>
        </mask>
        <use id="Mask-2" fill="#FFFFFF" xlink:href="#path-1"></use>
        <g id="Group" mask="url(#mask-2)">
            <g transform="translate(541.747191, 549.056180) rotate(-50.000000) translate(-541.747191, -549.056180) translate(-132.752809, -123.443820)">
                <ellipse id="Oval-Copy-2" fill="#29ACEE" cx="388.752809" cy="395.94382" rx="388" ry="387.5"></ellipse>
                <ellipse id="Oval-Copy" fill="#F4348E" cx="960.752809" cy="387.94382" rx="388" ry="387.5"></ellipse>
                <path d="M671.058299,130.44391 C736.595966,199.801809 776.752809,293.214706 776.752809,395.967847 C776.752809,494.797625 739.603992,584.986808 678.453628,653.442638 C612.909645,584.081195 572.752809,490.668305 572.752809,387.915173 C572.752809,289.46153 609.619396,199.582837 670.354839,131.222932 Z" id="Combined-Shape" fill="#29ACEE" opacity="0.632928757"></path>
                <ellipse id="Oval-Copy-3" fill="#FFB926" cx="412.752809" cy="933.94382" rx="388" ry="387.5"></ellipse>
                <path d="M413.172765,545.44382 C516.409927,545.44382 610.231231,585.779669 679.752829,651.559479 C608.637974,732.423483 504.439987,783.44382 388.331994,783.44382 C285.095246,783.44382 191.274279,743.108294 121.752764,677.32895 C192.866786,596.464158 297.064773,545.44382 413.172765,545.44382 Z" id="Combined-Shape" fill="#29ACEE" opacity="0.368675595"></path>
                <ellipse id="Oval-Copy-4" fill="#C03EFF" cx="873.752809" cy="956.94382" rx="388" ry="387.5"></ellipse>
                <path d="M658.667601,634.444222 C745.402614,705.54462 800.752809,813.568574 800.752809,934.530927 C800.752809,1069.26952 732.077174,1187.95481 627.84737,1257.43802 L627.838017,1257.44342 C541.103004,1186.34302 485.752809,1078.31907 485.752809,957.356713 C485.752809,824.600899 552.422095,707.429381 654.080005,637.548968 Z" id="Combined-Shape" fill="#FFB926" opacity="0.579194568"></path>
                <path d="M872.565662,568.44382 C994.053786,568.44382 1102.51689,624.159665 1173.75279,711.411255 L1173.74888,711.423007 C1112.42163,751.887794 1038.93421,775.44382 959.939956,775.44382 C838.451832,775.44382 729.988729,719.727976 658.752832,632.476385 L658.757103,632.464395 C720.084281,591.999754 793.571567,568.44382 872.565662,568.44382 Z" id="Combined-Shape" fill="#F4348E" opacity="0.524158296"></path>
            </g>
        </g>
    </g>
</svg>