<?xml version="1.0" encoding="UTF-8"?>
<svg width="1424px" height="1424px" viewBox="0 0 1424 1424" version="1.1" xmlns="http://www.w3.org/2000/svg" xmlns:xlink="http://www.w3.org/1999/xlink">
    <title>icon</title>
    <defs>
        <path d="M646.356012,61 L778.643988,61 C940.848186,61 1030.60264,83.9743388 1111.26931,127.115344 C1191.93598,170.25635 1255.24365,233.564022 1298.38466,314.230688 C1341.52566,394.897355 1364.5,484.651814 1364.5,646.856012 L1364.5,778.143988 C1364.5,940.348186 1341.52566,1030.10264 1298.38466,1110.76931 C1255.24365,1191.43598 1191.93598,1254.74365 1111.26931,1297.88466 C1030.60264,1341.02566 940.848186,1364 778.643988,1364 L646.356012,1364 C484.151814,1364 394.397355,1341.02566 313.730688,1297.88466 C233.064022,1254.74365 169.75635,1191.43598 126.615344,1110.76931 C83.4743388,1030.10264 60.5,940.348186 60.5,778.143988 L60.5,646.856012 C60.5,484.651814 83.4743388,394.897355 126.615344,314.230688 C169.75635,233.564022 233.064022,170.25635 313.730688,127.115344 C394.397355,83.9743388 484.151814,61 646.356012,61 Z M1450,-25 L1450,1450 L-26,1450 L-26,-25 L1450,-25 Z M879.377684,177 C850.9092,177 823.299492,180.673282 796.997539,187.571304 L796.997539,187.571304 L797.004335,573.19845 C747.389951,543.240906 689.211455,526 627,526 C445.298317,526 298,673.07446 298,854.5 C298,1035.92554 445.298317,1183 627,1183 C731.795848,1183 825.147872,1134.07763 885.397495,1057.85854 L885.397495,1057.85854 L886.299376,1058.81019 C937.389078,1112.23816 1006.49634,1148.46083 1083.94005,1157.84336 C1094.23005,1133.05424 1101.57447,1106.57046 1105.48508,1078.75955 C1109.08728,1053.14185 1109.57823,1027.80391 1107.24286,1003.13319 C1030.27507,995.637145 968.320664,937.048737 955.905578,861.808842 L955.905578,861.808842 L955.920155,861.809814 C955.973293,859.379621 956,856.942925 956,854.5 C956,845.851053 955.665245,837.280174 955.007966,828.799575 L955.007966,828.799575 L955.003824,185.877949 C930.742843,180.073764 905.419571,177 879.377684,177 Z M627,680.229541 C716.143819,680.229541 789.341198,748.54109 797.153347,835.698804 L797.153347,835.698804 L796.007,835.7 L796.01029,836.611659 C796.082891,845.821982 796.539187,854.941414 797.37203,863.956344 C790.83346,952.386843 717.053509,1022.09971 627,1022.09971 C532.645913,1022.09971 456.156812,945.569466 456.156812,851.164626 C456.156812,756.759785 532.645913,680.229541 627,680.229541 Z" id="path-1"></path>
    </defs>
    <g id="icon" stroke="none" stroke-width="1" fill="none" fill-rule="evenodd">
        <mask id="mask-2" fill="white">
            <use xlink:href="#path-1"></use>
        </mask>
        <use id="Mask-2" fill="#FFFFFF" xlink:href="#path-1"></use>
        <g id="Group" mask="url(#mask-2)">
            <g transform="translate(-319.500000, -196.000000)">
                <ellipse id="Oval-Copy-2" fill="#29ACEE" cx="578" cy="589.5" rx="578" ry="577.5"></ellipse>
                <ellipse id="Oval-Copy" fill="#F4348E" cx="1431" cy="577.5" rx="578" ry="577.5"></ellipse>
                <path d="M999.012222,193.819031 C1096.35514,297.175382 1156,436.378315 1156,589.5 C1156,736.775666 1100.82255,871.175096 1009.99549,973.187337 L1009.98777,973.18096 C912.64486,869.82461 853,730.621681 853,577.5 C853,430.785556 907.757724,296.849401 997.967721,194.980285 Z" id="Combined-Shape" fill="#29ACEE" opacity="0.632928757"></path>
                <ellipse id="Oval-Copy-3" fill="#FFB926" cx="615" cy="1390.5" rx="578" ry="577.5"></ellipse>
                <path d="M615,813 C768.769934,813 908.515155,872.994985 1012.06656,970.835032 L1012.06682,970.848295 C906.1428,1091.11263 750.941296,1167 578,1167 C424.230394,1167 284.485441,1107.00527 180.934098,1009.16559 L180.93318,1009.1517 C286.8572,888.887372 442.058704,813 615,813 Z" id="Combined-Shape" fill="#29ACEE" opacity="0.368675595"></path>
                <ellipse id="Oval-Copy-4" fill="#C03EFF" cx="1301" cy="1424.5" rx="578" ry="577.5"></ellipse>
                <path d="M980.99963,943.507633 C1110.4139,1049.41476 1193,1210.32122 1193,1390.5 C1193,1591.1986 1090.53198,1767.98522 935.014996,1871.48355 L935.00137,1871.49319 C805.586523,1765.58606 723,1604.67925 723,1424.5 C723,1226.75445 822.474807,1052.22238 974.154864,948.132466 Z" id="Combined-Shape" fill="#FFB926" opacity="0.579194568"></path>
                <path d="M1301,847 C1481.7561,847 1643.13295,929.900667 1749.12141,1059.72401 L1749.11513,1059.74254 C1657.86945,1119.95067 1548.53137,1155 1431,1155 C1250.2439,1155 1088.86705,1072.09933 982.878591,942.275985 L982.885047,942.257341 C1074.1307,882.049282 1183.46871,847 1301,847 Z" id="Combined-Shape" fill="#F4348E" opacity="0.524158296"></path>
            </g>
        </g>
    </g>
</svg>